<svg xmlns="http://www.w3.org/2000/svg" xmlns:xlink="http://www.w3.org/1999/xlink" width="188" height="68.692" viewBox="0 0 188 68.692">
  <defs>
    <clipPath id="clip-path">
      <rect id="Rectangle_1255" data-name="Rectangle 1255" width="188" height="68.692" fill="#0f122e"/>
    </clipPath>
  </defs>
  <g id="Group_2993" data-name="Group 2993" transform="translate(0 0)">
    <g id="Group_2993-2" data-name="Group 2993" transform="translate(0 0)" clip-path="url(#clip-path)">
      <path id="Path_38730" data-name="Path 38730" d="M100.919,110.168a12.828,12.828,0,0,0-1.207-.5q-.693-.249-1.022-.4a1.479,1.479,0,0,1-.5-.329.65.65,0,0,1-.167-.454.706.706,0,0,1,.286-.6,1.3,1.3,0,0,1,.8-.217,1.53,1.53,0,0,1,1.023.319.982.982,0,0,1,.373.773v.087a.127.127,0,0,0,.129.129h1.245a.125.125,0,0,0,.091-.037.123.123,0,0,0,.038-.092V108.7a2.1,2.1,0,0,0-.362-1.218,2.4,2.4,0,0,0-1.007-.816,3.52,3.52,0,0,0-1.466-.292,3.414,3.414,0,0,0-1.375.26,2.137,2.137,0,0,0-.93.747,1.95,1.95,0,0,0-.335,1.136,1.776,1.776,0,0,0,.341,1.109,2.458,2.458,0,0,0,.843.709,9.308,9.308,0,0,0,1.228.509q.65.237.947.373a1.543,1.543,0,0,1,.472.314.607.607,0,0,1,.172.438.762.762,0,0,1-.282.6,1.275,1.275,0,0,1-.855.244,1.768,1.768,0,0,1-1.081-.3.882.882,0,0,1-.4-.73v-.163a.122.122,0,0,0-.038-.091.126.126,0,0,0-.091-.038H96.552a.126.126,0,0,0-.092.038.124.124,0,0,0-.038.091v.238a2.064,2.064,0,0,0,.351,1.2,2.238,2.238,0,0,0,1,.791,3.855,3.855,0,0,0,1.514.276,3.178,3.178,0,0,0,2.023-.59,1.938,1.938,0,0,0,.747-1.607,1.691,1.691,0,0,0-.352-1.109,2.4,2.4,0,0,0-.789-.644" transform="translate(-41.177 -45.425)" fill="#0f122e"/>
      <path id="Path_38731" data-name="Path 38731" d="M115.44,106.521h-1.265a.131.131,0,0,0-.131.129v2.911a.048.048,0,0,1-.054.054H111.6a.048.048,0,0,1-.054-.054V106.65a.131.131,0,0,0-.13-.129h-1.266a.126.126,0,0,0-.092.038.123.123,0,0,0-.038.091v7.315a.129.129,0,0,0,.129.129h1.266a.122.122,0,0,0,.092-.038.126.126,0,0,0,.038-.092v-2.986a.048.048,0,0,1,.054-.054h2.391a.048.048,0,0,1,.054.054v2.986a.126.126,0,0,0,.038.092.123.123,0,0,0,.092.038h1.265a.124.124,0,0,0,.092-.038.126.126,0,0,0,.038-.092V106.65a.131.131,0,0,0-.131-.129" transform="translate(-46.984 -45.49)" fill="#0f122e"/>
      <path id="Path_38732" data-name="Path 38732" d="M127.878,110.881a.051.051,0,0,1,.033-.075,1.963,1.963,0,0,0,1.028-.741,2.139,2.139,0,0,0,.368-1.26,2.449,2.449,0,0,0-.286-1.2,1.975,1.975,0,0,0-.811-.8,2.541,2.541,0,0,0-1.218-.281H123.9a.125.125,0,0,0-.091.038.122.122,0,0,0-.038.092v7.315a.131.131,0,0,0,.129.129h1.266a.122.122,0,0,0,.092-.038.125.125,0,0,0,.038-.091v-2.954a.047.047,0,0,1,.054-.054h1.006a.068.068,0,0,1,.065.042l1.353,3a.153.153,0,0,0,.152.1h1.33c.079,0,.119-.029.119-.087a.177.177,0,0,0-.021-.065Zm-.373-1.362a1.035,1.035,0,0,1-.741.27h-1.417a.048.048,0,0,1-.054-.054v-1.851a.048.048,0,0,1,.054-.054h1.417a1.022,1.022,0,0,1,.741.276.94.94,0,0,1,.286.709.923.923,0,0,1-.286.7" transform="translate(-52.854 -45.49)" fill="#0f122e"/>
      <path id="Path_38733" data-name="Path 38733" d="M142.378,106.521h-5a.125.125,0,0,0-.091.038.12.12,0,0,0-.038.091v7.315a.131.131,0,0,0,.129.129h5a.122.122,0,0,0,.092-.038.125.125,0,0,0,.038-.091v-1.05a.129.129,0,0,0-.038-.092.125.125,0,0,0-.092-.037H138.83a.048.048,0,0,1-.054-.054v-1.753a.048.048,0,0,1,.054-.054h2.326a.13.13,0,0,0,.13-.131v-1.049a.13.13,0,0,0-.038-.092.125.125,0,0,0-.092-.037H138.83a.048.048,0,0,1-.054-.054v-1.678a.048.048,0,0,1,.054-.054h3.548a.131.131,0,0,0,.131-.129v-1.05a.125.125,0,0,0-.038-.091.126.126,0,0,0-.092-.038" transform="translate(-58.612 -45.49)" fill="#0f122e"/>
      <path id="Path_38734" data-name="Path 38734" d="M158.432,106.522h-1.277a.139.139,0,0,0-.141.119l-1,4.392c-.007.029-.018.042-.033.038s-.025-.017-.032-.038l-1.082-4.4a.142.142,0,0,0-.151-.108h-1.309a.138.138,0,0,0-.14.119l-1,4.392c-.007.029-.019.044-.033.044s-.025-.015-.033-.044l-1.028-4.4a.136.136,0,0,0-.14-.108H149.7c-.08,0-.119.033-.119.1l.011.043,1.915,7.325a.142.142,0,0,0,.151.108h1.2a.129.129,0,0,0,.141-.119l1.028-4.674c.007-.029.018-.044.032-.044s.025.015.033.044l1.1,4.685a.137.137,0,0,0,.142.108h1.287a.142.142,0,0,0,.151-.108l1.775-7.325c.021-.094-.018-.14-.119-.14" transform="translate(-63.879 -45.49)" fill="#0f122e"/>
      <path id="Path_38735" data-name="Path 38735" d="M172.339,110.168a12.739,12.739,0,0,0-1.207-.5q-.693-.249-1.022-.4a1.479,1.479,0,0,1-.5-.329.65.65,0,0,1-.167-.454.706.706,0,0,1,.286-.6,1.3,1.3,0,0,1,.8-.217,1.53,1.53,0,0,1,1.023.319.984.984,0,0,1,.373.773v.087a.127.127,0,0,0,.037.092.125.125,0,0,0,.092.037H173.3a.124.124,0,0,0,.091-.037.125.125,0,0,0,.038-.092V108.7a2.1,2.1,0,0,0-.362-1.218,2.4,2.4,0,0,0-1.007-.816,3.52,3.52,0,0,0-1.466-.292,3.412,3.412,0,0,0-1.375.26,2.137,2.137,0,0,0-.93.747,1.95,1.95,0,0,0-.335,1.136,1.776,1.776,0,0,0,.341,1.109,2.453,2.453,0,0,0,.843.709,9.308,9.308,0,0,0,1.228.509q.65.237.947.373a1.533,1.533,0,0,1,.471.314.605.605,0,0,1,.173.438.762.762,0,0,1-.282.6,1.276,1.276,0,0,1-.855.244,1.771,1.771,0,0,1-1.082-.3.883.883,0,0,1-.4-.73v-.163a.122.122,0,0,0-.038-.091.126.126,0,0,0-.092-.038h-1.233a.131.131,0,0,0-.131.129v.238a2.064,2.064,0,0,0,.352,1.2,2.24,2.24,0,0,0,1,.791,3.86,3.86,0,0,0,1.515.276,3.178,3.178,0,0,0,2.023-.59,1.938,1.938,0,0,0,.747-1.607,1.691,1.691,0,0,0-.352-1.109,2.4,2.4,0,0,0-.79-.644" transform="translate(-71.677 -45.425)" fill="#0f122e"/>
      <path id="Path_38736" data-name="Path 38736" d="M185.928,110.211c-.044-.021-.044-.044,0-.065a1.6,1.6,0,0,0,.92-1.547q0-2.077-2.565-2.078h-2.716a.125.125,0,0,0-.091.038.121.121,0,0,0-.038.091v7.315a.131.131,0,0,0,.129.129h2.8a3.048,3.048,0,0,0,1.872-.535,1.858,1.858,0,0,0,.714-1.585,1.832,1.832,0,0,0-1.028-1.764m-2.964-2.327a.048.048,0,0,1,.054-.054h1.265a1.166,1.166,0,0,1,.79.244.832.832,0,0,1,.281.665.808.808,0,0,1-.281.65,1.192,1.192,0,0,1-.79.238h-1.265a.048.048,0,0,1-.054-.054Zm2.185,4.636a1.119,1.119,0,0,1-.779.254h-1.352a.048.048,0,0,1-.054-.054v-1.8a.048.048,0,0,1,.054-.054h1.341a1.135,1.135,0,0,1,.79.254,1.005,1.005,0,0,1,0,1.4" transform="translate(-77.483 -45.49)" fill="#0f122e"/>
      <path id="Path_38737" data-name="Path 38737" d="M200.417,106.521h-1.266a.131.131,0,0,0-.13.129V111.6a1.278,1.278,0,1,1-2.554,0V106.65a.124.124,0,0,0-.037-.091.126.126,0,0,0-.092-.038h-1.266a.128.128,0,0,0-.092.038.124.124,0,0,0-.037.091v4.934a2.6,2.6,0,0,0,.351,1.357,2.381,2.381,0,0,0,.985.914,3.47,3.47,0,0,0,2.932,0,2.374,2.374,0,0,0,.985-.914,2.6,2.6,0,0,0,.352-1.357V106.65a.124.124,0,0,0-.038-.091.126.126,0,0,0-.092-.038" transform="translate(-83.25 -45.49)" fill="#0f122e"/>
      <path id="Path_38738" data-name="Path 38738" d="M212.913,110.881a.051.051,0,0,1,.033-.075,1.963,1.963,0,0,0,1.028-.741,2.14,2.14,0,0,0,.368-1.26,2.449,2.449,0,0,0-.286-1.2,1.974,1.974,0,0,0-.811-.8,2.541,2.541,0,0,0-1.218-.281h-3.095a.128.128,0,0,0-.092.038.123.123,0,0,0-.038.092v7.315a.122.122,0,0,0,.038.091.124.124,0,0,0,.092.038H210.2a.122.122,0,0,0,.092-.038.125.125,0,0,0,.038-.091v-2.954a.047.047,0,0,1,.054-.054h1.006a.068.068,0,0,1,.065.042l1.353,3a.153.153,0,0,0,.152.1h1.33c.079,0,.119-.029.119-.087a.169.169,0,0,0-.022-.065Zm-.373-1.362a1.035,1.035,0,0,1-.741.27h-1.417a.048.048,0,0,1-.054-.054v-1.851a.048.048,0,0,1,.054-.054H211.8a1.022,1.022,0,0,1,.741.276.94.94,0,0,1,.286.709.923.923,0,0,1-.286.7" transform="translate(-89.168 -45.49)" fill="#0f122e"/>
      <path id="Path_38739" data-name="Path 38739" d="M225.689,106.522a.154.154,0,0,0-.152.1l-1.353,2.878c-.021.043-.042.043-.064,0l-1.353-2.878a.153.153,0,0,0-.152-.1h-1.363c-.079,0-.119.029-.119.087a.169.169,0,0,0,.022.065l2.229,4.479a.149.149,0,0,1,.011.065v2.737a.129.129,0,0,0,.129.129h1.255a.124.124,0,0,0,.092-.037.129.129,0,0,0,.038-.092v-2.737a.15.15,0,0,1,.011-.065l2.25-4.479a.119.119,0,0,0,.006-.114.121.121,0,0,0-.1-.038Z" transform="translate(-94.434 -45.49)" fill="#0f122e"/>
      <path id="Path_38740" data-name="Path 38740" d="M14.405,50.348c-.1-.076-.086-.143.029-.21a5.327,5.327,0,0,0,2.7-5.014,6.115,6.115,0,0,0-2.069-5.063A9.036,9.036,0,0,0,9.257,38.4H0l1.516,1.716V62.494a.369.369,0,0,0,.124.3.369.369,0,0,0,.3.124H9.781a8.6,8.6,0,0,0,5.548-1.725,6.125,6.125,0,0,0,2.154-5.063,6.12,6.12,0,0,0-3.079-5.777M6.454,42.817a.158.158,0,0,1,.171-.181h2.66a3.027,3.027,0,0,1,2.221.772,2.874,2.874,0,0,1,.791,2.173,2.818,2.818,0,0,1-.8,2.136,3.08,3.08,0,0,1-2.212.772H6.626a.152.152,0,0,1-.171-.171Zm5.3,15.006a2.9,2.9,0,0,1-2.183.82H6.626a.152.152,0,0,1-.171-.171V52.446a.152.152,0,0,1,.171-.172H9.572a2.821,2.821,0,0,1,2.183.858,3.358,3.358,0,0,1,.791,2.364,3.244,3.244,0,0,1-.791,2.326" transform="translate(0 -16.4)" fill="#0f122e"/>
      <path id="Path_38741" data-name="Path 38741" d="M52.323,38.892a9.025,9.025,0,0,0-4.272-.98,8.922,8.922,0,0,0-4.256.98,7.023,7.023,0,0,0-2.854,2.767,8.219,8.219,0,0,0-1.015,4.133v9.315a8.29,8.29,0,0,0,1.015,4.168A7.016,7.016,0,0,0,43.8,62.042a8.9,8.9,0,0,0,4.256.981,9,9,0,0,0,4.272-.981A6.985,6.985,0,0,0,55.2,59.276a8.284,8.284,0,0,0,1.015-4.168V45.792A8.213,8.213,0,0,0,55.2,41.66a6.991,6.991,0,0,0-2.872-2.767M51.272,55.318a3.573,3.573,0,0,1-.875,2.5,3.014,3.014,0,0,1-2.346.964,2.974,2.974,0,0,1-2.312-.964,3.573,3.573,0,0,1-.875-2.5V45.653a3.629,3.629,0,0,1,.875-2.54,2.975,2.975,0,0,1,2.312-.963,3.015,3.015,0,0,1,2.346.963,3.629,3.629,0,0,1,.875,2.54Z" transform="translate(-17.05 -16.19)" fill="#0f122e"/>
      <path id="Path_38742" data-name="Path 38742" d="M88.459,38.756a.457.457,0,0,0-.486-.353H80.727l1.354,1.535L76.094,62.465c-.067.3.048.448.352.448H80.68a.435.435,0,0,0,.458-.343l.81-3.432A.158.158,0,0,1,82.119,59h6.55a.158.158,0,0,1,.171.143l.81,3.432a.453.453,0,0,0,.486.343h4.281c.248,0,.382-.1.382-.315l-.038-.133Zm-.629,16.369a.227.227,0,0,1-.143.057H83.063a.2.2,0,0,1-.133-.057.126.126,0,0,1-.038-.162l2.345-10.153c.019-.1.057-.133.1-.133s.086.038.105.133l2.421,10.153c.019.077.01.124-.038.162" transform="translate(-32.488 -16.4)" fill="#0f122e"/>
      <path id="Path_38743" data-name="Path 38743" d="M122.429,62.793a.4.4,0,0,0,.122-.3V42.849a.156.156,0,0,1,.176-.175h5.323a.418.418,0,0,0,.421-.42V38.822a.42.42,0,0,0-.421-.421H112.29a.421.421,0,0,0-.421.421v3.431a.419.419,0,0,0,.421.42h5.147a.155.155,0,0,1,.175.175V62.5a.42.42,0,0,0,.421.42h4.1a.4.4,0,0,0,.3-.123" transform="translate(-47.773 -16.399)" fill="#0f122e"/>
      <path id="Path_38744" data-name="Path 38744" d="M164.661,38.4h-4.1a.423.423,0,0,0-.419.419V48.28a.152.152,0,0,1-.172.172h-5.605a.159.159,0,0,1-.182-.172V38.822a.411.411,0,0,0-.114-.3.4.4,0,0,0-.305-.124h-6.025l1.516,1.716V62.494a.4.4,0,0,0,.114.3.4.4,0,0,0,.305.124h4.09a.4.4,0,0,0,.305-.124.4.4,0,0,0,.114-.3V52.9a.162.162,0,0,1,.182-.181h5.605c.115,0,.172.057.172.181v9.591a.369.369,0,0,0,.124.3.381.381,0,0,0,.3.124h4.1a.381.381,0,0,0,.3-.124.371.371,0,0,0,.124-.3V38.822a.423.423,0,0,0-.419-.419" transform="translate(-63.092 -16.4)" fill="#0f122e"/>
      <path id="Path_38745" data-name="Path 38745" d="M196.338,63.023a9.006,9.006,0,0,0,4.273-.981,6.98,6.98,0,0,0,2.872-2.766,8.29,8.29,0,0,0,1.015-4.168V45.792a8.22,8.22,0,0,0-1.015-4.133,6.986,6.986,0,0,0-2.872-2.767,9.026,9.026,0,0,0-4.273-.98,8.921,8.921,0,0,0-4.255.98,7.009,7.009,0,0,0-2.854,2.767,8.22,8.22,0,0,0-1.016,4.133v9.315a8.29,8.29,0,0,0,1.016,4.168,7,7,0,0,0,2.854,2.766,8.9,8.9,0,0,0,4.255.981m-3.187-17.371a3.63,3.63,0,0,1,.876-2.54,2.973,2.973,0,0,1,2.311-.963,3.016,3.016,0,0,1,2.347.963,3.632,3.632,0,0,1,.875,2.54v9.666a3.576,3.576,0,0,1-.875,2.5,3.014,3.014,0,0,1-2.347.964,2.972,2.972,0,0,1-2.311-.964,3.574,3.574,0,0,1-.876-2.5Z" transform="translate(-80.376 -16.19)" fill="#0f122e"/>
      <path id="Path_38746" data-name="Path 38746" d="M241.3,38.4h-4.1a.423.423,0,0,0-.419.419V55.63a3.422,3.422,0,0,1-.839,2.422,3.225,3.225,0,0,1-4.481,0,3.425,3.425,0,0,1-.849-2.422V38.822a.411.411,0,0,0-.114-.3.405.405,0,0,0-.305-.124h-6l1.487,1.7V55.392a8.159,8.159,0,0,0,.991,4.081,7.052,7.052,0,0,0,2.822,2.746,9.491,9.491,0,0,0,8.409,0,7.028,7.028,0,0,0,2.813-2.746,8.17,8.17,0,0,0,1-4.081V38.822a.384.384,0,0,0-.124-.3.4.4,0,0,0-.3-.124" transform="translate(-95.742 -16.4)" fill="#0f122e"/>
      <path id="Path_38747" data-name="Path 38747" d="M277.689,50.923a32.2,32.2,0,0,0-3.169-1.944l-.736-.42q-1.786-.876-2.662-1.419a4.388,4.388,0,0,1-1.3-1.138,2.362,2.362,0,0,1-.42-1.4,2.3,2.3,0,0,1,.717-1.8,2.847,2.847,0,0,1,1.978-.648,3.3,3.3,0,0,1,2.382.841,2.792,2.792,0,0,1,.876,2.1v.63a.42.42,0,0,0,.42.42h4.027a.421.421,0,0,0,.421-.42v-.7a6.668,6.668,0,0,0-3.853-6.216,10.139,10.139,0,0,0-8.161-.07,6.289,6.289,0,0,0-2.714,2.347,6.507,6.507,0,0,0-.964,3.555,6.163,6.163,0,0,0,.946,3.467,8.385,8.385,0,0,0,2.276,2.346,29.746,29.746,0,0,0,3.431,1.962q1.716.876,2.54,1.383a4.873,4.873,0,0,1,1.278,1.086,2.171,2.171,0,0,1,.456,1.383,2.393,2.393,0,0,1-.718,1.787,2.868,2.868,0,0,1-2.084.7,3.515,3.515,0,0,1-2.452-.823,2.647,2.647,0,0,1-.91-2.048v-.666a.419.419,0,0,0-.42-.419h-4.027a.419.419,0,0,0-.421.419v.911a6.515,6.515,0,0,0,1,3.59,6.585,6.585,0,0,0,2.82,2.416,9.833,9.833,0,0,0,4.237.858,8.415,8.415,0,0,0,5.727-1.874,6.362,6.362,0,0,0,2.153-5.06,5.747,5.747,0,0,0-.769-3.048,7.117,7.117,0,0,0-1.91-2.083" transform="translate(-112.925 -16.19)" fill="#0f122e"/>
      <path id="Path_38748" data-name="Path 38748" d="M306.082,42.636h9.381a.41.41,0,0,0,.3-.115.4.4,0,0,0,.124-.3V38.822a.423.423,0,0,0-.419-.419H299.456l1.506,1.706V62.494a.369.369,0,0,0,.124.3.4.4,0,0,0,.3.124h14.081a.382.382,0,0,0,.3-.124.369.369,0,0,0,.124-.3V59.1a.424.424,0,0,0-.419-.42h-9.381a.157.157,0,0,1-.181-.181V52.865c0-.114.057-.171.181-.171h5.844a.418.418,0,0,0,.3-.124.4.4,0,0,0,.124-.3v-3.4a.4.4,0,0,0-.124-.3.381.381,0,0,0-.3-.124h-5.844c-.124,0-.181-.057-.181-.172V42.817a.161.161,0,0,1,.181-.181" transform="translate(-127.882 -16.4)" fill="#0f122e"/>
      <path id="Path_38749" data-name="Path 38749" d="M145.951,1.32h1.883a.048.048,0,0,1,.054.054v6.07a.125.125,0,0,0,.038.091.122.122,0,0,0,.092.038h1.266a.12.12,0,0,0,.092-.038.124.124,0,0,0,.038-.091V1.375a.048.048,0,0,1,.054-.054H151.4a.125.125,0,0,0,.092-.038.126.126,0,0,0,.038-.092V.129A.125.125,0,0,0,151.5.038.125.125,0,0,0,151.4,0h-5.453a.126.126,0,0,0-.092.038.124.124,0,0,0-.038.091V1.19a.129.129,0,0,0,.13.13" transform="translate(-62.273 0)" fill="#0f122e"/>
      <path id="Path_38750" data-name="Path 38750" d="M159.509,7.574h1.266a.12.12,0,0,0,.092-.038.124.124,0,0,0,.038-.091V4.458a.047.047,0,0,1,.054-.054h2.391a.047.047,0,0,1,.054.054V7.444a.124.124,0,0,0,.038.091.121.121,0,0,0,.092.038H164.8a.122.122,0,0,0,.092-.038.124.124,0,0,0,.038-.091V.129a.125.125,0,0,0-.038-.091A.126.126,0,0,0,164.8,0h-1.265a.125.125,0,0,0-.092.038.125.125,0,0,0-.038.091V3.041a.048.048,0,0,1-.054.054H160.96a.048.048,0,0,1-.054-.054V.129a.125.125,0,0,0-.038-.091A.124.124,0,0,0,160.776,0h-1.266a.126.126,0,0,0-.092.038.122.122,0,0,0-.038.091V7.444a.13.13,0,0,0,.129.129" transform="translate(-68.063 0)" fill="#0f122e"/>
      <path id="Path_38751" data-name="Path 38751" d="M173.256,7.575h5a.121.121,0,0,0,.092-.038.125.125,0,0,0,.038-.091V6.4a.129.129,0,0,0-.038-.092.124.124,0,0,0-.092-.037h-3.548a.047.047,0,0,1-.054-.054V4.459a.047.047,0,0,1,.054-.054h2.326a.124.124,0,0,0,.092-.038.125.125,0,0,0,.038-.092V3.225a.128.128,0,0,0-.038-.092.123.123,0,0,0-.092-.037h-2.326a.048.048,0,0,1-.054-.054V1.364a.048.048,0,0,1,.054-.054h3.548a.131.131,0,0,0,.131-.129V.13a.124.124,0,0,0-.038-.091A.125.125,0,0,0,178.255,0h-5a.124.124,0,0,0-.091.038.12.12,0,0,0-.038.091V7.445a.131.131,0,0,0,.129.129" transform="translate(-73.933 0)" fill="#0f122e"/>
    </g>
  </g>
</svg>
