<svg xmlns="http://www.w3.org/2000/svg" width="7.231" height="12.475" viewBox="0 0 7.231 12.475">
  <g id="Group_3651" data-name="Group 3651" transform="translate(7.229 12.476) rotate(180)" opacity="0.5">
    <path id="Subtraction_2" data-name="Subtraction 2" d="M.593,11.675A.584.584,0,0,1,.176,11.5a.584.584,0,0,1,0-.836L5,5.839.176,1.009a.584.584,0,0,1,0-.836A.584.584,0,0,1,.593,0,.59.59,0,0,1,1.01.172L6.259,5.419a.595.595,0,0,1,0,.836L1.01,11.5A.59.59,0,0,1,.593,11.675Z" transform="translate(0.398 0.401)" fill="#0f122e" stroke="#10122e" stroke-width="0.8"/>
  </g>
</svg>
