<svg xmlns="http://www.w3.org/2000/svg" width="1440" height="97.403" viewBox="0 0 1440 97.403">
  <path id="Path_38754" data-name="Path 38754" d="M990.188,0H0V75.664a20.207,20.207,0,0,1,7.486-1.138C20.914,74.813,27.4,87.834,27.4,87.834c3,3.873,8.785,9.381,17.473,9.566A19.62,19.62,0,0,0,57.23,93.2c7.516-5.767,9.858-18.99,25.262-18.671a21.24,21.24,0,0,1,12.6,4.637,28.537,28.537,0,0,1,5.941,6.39,28.289,28.289,0,0,0,2.759,3.18,29.222,29.222,0,0,0,5.823,5c2.66,1.723,6.188,3.584,10.219,3.67a19.634,19.634,0,0,0,12.358-4.2c7.512-5.767,9.853-18.99,25.259-18.671,13.442.287,19.931,13.308,19.931,13.308,3.007,3.873,8.787,9.381,17.459,9.566a19.668,19.668,0,0,0,12.369-4.2c7.516-5.767,9.844-18.99,25.262-18.671a21.159,21.159,0,0,1,12.587,4.637A28.485,28.485,0,0,1,251,85.552a28.3,28.3,0,0,0,2.772,3.18,29.653,29.653,0,0,0,5.81,5c2.676,1.723,6.187,3.584,10.218,3.67a19.7,19.7,0,0,0,12.371-4.2c7.516-5.767,9.841-18.99,25.26-18.671,13.428.287,19.918,13.308,19.918,13.308,3,3.873,8.787,9.381,17.472,9.566a19.609,19.609,0,0,0,12.354-4.2c7.516-5.767,9.858-18.99,25.264-18.671a21.247,21.247,0,0,1,12.6,4.637,28.493,28.493,0,0,1,5.939,6.39,28.437,28.437,0,0,0,2.76,3.18,29.568,29.568,0,0,0,5.809,5c2.673,1.723,6.188,3.584,10.232,3.67a19.659,19.659,0,0,0,12.358-4.2c6.95-5.333,9.481-17.033,22-18.514.227-.026.45-.056.684-.074s.5-.035.754-.048c.542-.026,1.09-.045,1.667-.035.021,0,.04,0,.06,0,13.42.3,19.9,13.308,19.9,13.308,3,3.873,8.785,9.381,17.473,9.566.023,0,.046,0,.07,0h.034c.1,0,.2-.007.3-.005s.2.008.3.005.209-.014.316-.018c.127,0,.251-.017.377-.023.221-.012.444-.019.663-.039.056-.005.113-.005.169-.01l.165-.017c.435-.045.864-.1,1.285-.177.139-.023.276-.052.413-.078.265-.053.529-.107.786-.169,6.39-1.491,10.8-5.82,13.3-9.034,0,0,6.4-12.833,19.641-13.294a21.277,21.277,0,0,1,12.4,4.622,28.539,28.539,0,0,1,5.941,6.39,28.165,28.165,0,0,0,2.76,3.18c.353.377.709.742,1.069,1.1a21.019,21.019,0,0,0,3.37,3.361,19.861,19.861,0,0,0,11.112,4.166c.164.009.324.032.49.036.129,0,.251-.01.378-.01s.248.013.377.01c.168,0,.328-.027.493-.036A19.819,19.819,0,0,0,582.006,93.2a21.07,21.07,0,0,0,3.364-3.357c.361-.364.719-.729,1.075-1.108a28.559,28.559,0,0,0,2.759-3.18,28.523,28.523,0,0,1,5.939-6.39,21.285,21.285,0,0,1,12.4-4.622C620.794,75,627.2,87.834,627.2,87.834c2.847,3.666,8.183,8.79,16.1,9.485.221.019.447.027.672.039s.454.038.687.042c.122,0,.235-.01.355-.01s.234.013.355.01c.235,0,.459-.029.689-.04s.452-.021.674-.042c7.928-.7,13.265-5.818,16.11-9.484,0,0,6.4-12.838,19.649-13.3a21.2,21.2,0,0,1,12.387,4.624,28.484,28.484,0,0,1,5.943,6.39,28.185,28.185,0,0,0,2.773,3.18c.325.347.654.681.984,1.015a21.233,21.233,0,0,0,3.441,3.45,19.91,19.91,0,0,0,11.1,4.165c.168.01.33.034.5.038.13,0,.253-.01.383-.01s.253.013.385.01c.169,0,.331-.027.5-.038a19.914,19.914,0,0,0,11.1-4.165,21.343,21.343,0,0,0,3.441-3.45c.329-.334.658-.668.984-1.015a28.309,28.309,0,0,0,2.773-3.18,28.446,28.446,0,0,1,5.941-6.39,21.2,21.2,0,0,1,12.388-4.624c13.245.457,19.649,13.3,19.649,13.3,2.843,3.666,8.182,8.789,16.109,9.484.222.021.45.029.674.042s.455.036.69.04c.12,0,.234-.01.353-.01s.234.013.355.01c.234,0,.459-.029.689-.042s.45-.019.671-.039c7.918-.7,13.254-5.819,16.1-9.485,0,0,6.4-12.834,19.655-13.294a21.293,21.293,0,0,1,12.4,4.622,28.516,28.516,0,0,1,5.937,6.39,28.573,28.573,0,0,0,2.76,3.18c.355.379.712.745,1.073,1.108a21.067,21.067,0,0,0,3.364,3.357,19.827,19.827,0,0,0,11.112,4.166c.165.009.325.032.491.036.129,0,.251-.01.378-.01s.249.013.378.01c.165,0,.325-.027.49-.036A19.864,19.864,0,0,0,881.955,93.2a20.974,20.974,0,0,0,3.37-3.362c.36-.361.716-.726,1.07-1.1a28.17,28.17,0,0,0,2.759-3.18,28.512,28.512,0,0,1,5.943-6.39A21.273,21.273,0,0,1,907.49,74.54c13.239.461,19.641,13.294,19.641,13.294,2.5,3.214,6.908,7.544,13.3,9.034.259.062.521.116.786.169.138.026.274.055.414.078.42.074.849.131,1.285.177l.164.017c.056.005.114.005.17.01.218.019.441.027.663.039.126.007.249.019.377.023.107,0,.208.016.315.018s.2-.007.3-.005.2.008.3.005h.035c.023,0,.046,0,.069,0,8.688-.185,14.469-5.693,17.473-9.566,0,0,6.485-13.012,19.9-13.308.021,0,.04,0,.06,0,.577-.01,1.125.009,1.667.035.253.013.508.026.755.048s.456.048.682.074c12.522,1.481,15.053,13.181,22,18.514a19.656,19.656,0,0,0,12.357,4.2c4.045-.086,7.559-1.947,10.232-3.67a29.539,29.539,0,0,0,5.81-5,28.565,28.565,0,0,0,2.759-3.18,28.523,28.523,0,0,1,5.939-6.39,21.251,21.251,0,0,1,12.6-4.637c15.4-.318,17.747,12.9,25.262,18.671a19.614,19.614,0,0,0,12.354,4.2c8.686-.185,14.469-5.693,17.473-9.566,0,0,6.488-13.021,19.917-13.308,15.417-.318,17.744,12.9,25.259,18.671a19.706,19.706,0,0,0,12.371,4.2c4.031-.086,7.542-1.947,10.219-3.67a29.65,29.65,0,0,0,5.809-5,28.321,28.321,0,0,0,2.773-3.18,28.423,28.423,0,0,1,5.943-6.39,21.152,21.152,0,0,1,12.586-4.637c15.419-.318,17.747,12.9,25.264,18.671a19.664,19.664,0,0,0,12.368,4.2c8.672-.185,14.452-5.693,17.459-9.566,0,0,6.488-13.021,19.931-13.308,15.406-.318,17.747,12.9,25.26,18.671a19.629,19.629,0,0,0,12.358,4.2c4.03-.086,7.558-1.947,10.218-3.67a29.184,29.184,0,0,0,5.823-5,28.164,28.164,0,0,0,2.759-3.18,28.544,28.544,0,0,1,5.943-6.39,21.239,21.239,0,0,1,12.6-4.637c15.406-.318,17.747,12.9,25.264,18.671a19.613,19.613,0,0,0,12.353,4.2c8.689-.185,14.469-5.693,17.473-9.566,0,0,6.488-13.021,19.916-13.308A20.207,20.207,0,0,1,1440,75.664V0Z" transform="translate(1440 97.403) rotate(180)" fill="#0f122e"/>
</svg>
