<svg id="Layer_1" data-name="Layer 1" xmlns="http://www.w3.org/2000/svg" width="106.903" height="115.102" viewBox="0 0 106.903 115.102">
  <g id="Group_2972" data-name="Group 2972">
    <path id="Path_38717" data-name="Path 38717" d="M521.993,609.247a1.122,1.122,0,0,1-1.545-.144l-8.345-9.862-.085-.085a63.437,63.437,0,0,1-11.592-18.491l23.444,26.98-1.876,1.6Zm7.629-7.916c-5.921-7-11.087-14.514-18.276-20.282q-2.731-2.191-5.672-4.107c-1.225-.8-4.457-1.783-5.321-2.8L490.02,561.93,489,563.162l-.874,1.058-1.56,1.89,9.7,11.479c.565.669.782,2.345,1.095,3.161a60.789,60.789,0,0,0,3.961,8.384c4.658,8.137,10.974,14.778,16.929,21.816a3.971,3.971,0,0,0,5.582.473l2.79-2.362,1.3-1.1,1.23-1.045a3.978,3.978,0,0,0,.458-5.581" transform="translate(-430.564 -497.251)" fill="#f2f0e5"/>
    <path id="Path_38718" data-name="Path 38718" d="M70.09,107.5a1.128,1.128,0,0,1-.144-1.561l8.36-9.862.028-.043.03-.029a66.884,66.884,0,0,1,4.84-5.434c3.043-3.143,6.724-7.217,10.861-8.79.276,1.611-2.833,4.247-3.862,5.5q-2.381,2.9-4.762,5.806Q80.721,98.843,76,104.6c-.206.25-3.833,4.654-3.823,4.66Zm57.1-66.342a.674.674,0,0,1-.066-.356c.052-.618.289-1.164.306-1.829.015-.608.031-1.225.012-1.834-.014-.443-.014-.886,0-1.317a3.658,3.658,0,0,1,.544-2.018,19.753,19.753,0,0,1,1.539-2.343c.3-.407,1.042-1.807,1.6-1.812.449,0,.767.685,1.085.948a3.308,3.308,0,0,0,1.356.66c.359.081,1.175-.1,1.4.218a.682.682,0,0,1,.013.681,20.073,20.073,0,0,1-2.239,2.88q-1.241,1.609-2.485,3.215c-.364.471-2.163,3.457-2.856,3.117a.454.454,0,0,1-.206-.212M165.869,9.212c-.558-.2-1.646.959-1.646.959L145.23,32.928l-.1.129c-.085.1-.159.185-.23.273l-.257.314-.014-.014c-1.088,1.118-2.19,1.717-2.62,1.359a.544.544,0,0,1-.172-.386,4.847,4.847,0,0,1,1.188-2.662l.043-.043.244-.315.013-.013L161.746,8.285c.958-1.562.372-2.147.372-2.147-.544-.215-1.646.944-1.646.944L141.436,29.9l-.143.173c-.014.014-.014.029-.029.043a6.107,6.107,0,0,1-1.771,1.455,1.072,1.072,0,0,1-1.314-.279c-.594-.78-.236-1.717.365-2.608,0-.013.4-.5.4-.5l.572-.7,18.407-22.5s.93-1.3.63-1.788a.742.742,0,0,0-.387-.086,2.562,2.562,0,0,0-1.66.86L137.112,26.448c0,.015-.285.329-.285.329a4.556,4.556,0,0,1-2.49,1.7.587.587,0,0,1-.329-.1c-.444-.358-.058-1.547.844-2.835a3.1,3.1,0,0,1,.23-.314l.328-.4L154.191,1.884s.931-1.3.616-1.789A.745.745,0,0,0,154.42.01a2.566,2.566,0,0,0-1.66.859L137.347,18.745c-.114.115-3.292,3.149-6.455,6.643a40.045,40.045,0,0,0-5.4,7.012,6.5,6.5,0,0,0-.915,3.376,47.94,47.94,0,0,1-.144,4.968,12.781,12.781,0,0,1-2.79,6.6l-5.669,6.869c-.014,0-8.988,10.878-8.988,10.878l-5.6,6.569-.114.144-4.251,5.1C86.939,80.548,76.119,94.23,76.119,94.23l-8.359,9.862a3.978,3.978,0,0,0,.473,5.581l2.632,2.233,1.675,1.417,1.016.859a3.962,3.962,0,0,0,5.567-.472l8.359-9.861a64.526,64.526,0,0,0,13.625-23.5l5.569-6.671,2.347-2.82,3.85-4.622,8.874-10.649,5.067-6.1a13,13,0,0,1,7.414-3.507h.043a13.553,13.553,0,0,0,3.278-.557c3.392-.716,11.493-12.868,13.01-15.187l14.928-18.864c.959-1.561.387-2.162.387-2.162" transform="translate(-59.14 -0.009)" fill="#f2f0e5"/>
    <path id="Path_38719" data-name="Path 38719" d="M42.491,53.959a14.991,14.991,0,0,1-1.545-.214,15.177,15.177,0,0,0-2-.328A7.122,7.122,0,0,1,37,53.044c-1.2-.459-5.34-3.278-18.005-19.48C14.855,28.3,5.98,17,3.5,8.389L42.634,53.974a.468.468,0,0,1-.144-.015m8.574.731-1.532-1.875a.31.31,0,0,0-.071-.1c-1.731-2.233-3.95-5.211-4.736-6.126C30.94,30.758,20.007,16.689,6.238.861A3.708,3.708,0,0,0,1.114,1.2,4.44,4.44,0,0,0,0,4.238c-.073,9.518,10.95,23.717,16.745,31.087,3.535,4.522,14.57,18.592,19.221,20.381,1.547.6,2.864.473,4.337.815,2.562.6,4.681-.143,7.743,3.035l1.546-1.876,1.974-2.39-.5-.6Z" transform="translate(0.003 -0.001)" fill="#f2f0e5"/>
    <path id="Path_38720" data-name="Path 38720" d="M466.344,574.874l.015-.014-.269-.241Z" transform="translate(-412.442 -508.48)" fill="#f2f0e5"/>
  </g>
</svg>
