<svg id="Layer_1" data-name="Layer 1" xmlns="http://www.w3.org/2000/svg" width="177.37" height="103.041" viewBox="0 0 177.37 103.041">
  <g id="Layer_1-2" data-name="Layer 1" transform="translate(0.01 0)">
    <g id="Group_2973" data-name="Group 2973" transform="translate(-0.01 0)">
      <path id="Path_38721" data-name="Path 38721" d="M520.07,55.069a1.846,1.846,0,0,0,.073.6c.355,1.158,1.738,2.5,2.424,3.493q2.025,2.918,4.051,5.836L537.2,80.241q3.686,5.312,7.374,10.622c1.934,2.787,4.975,5.99,5.824,9.347a2.1,2.1,0,0,1-3.354,2.355c-3.119-2.079-5.426-6.9-7.54-9.948q-4.054-5.838-8.107-11.68-7.41-10.674-14.818-21.349c.21.3-3.382,4.871-3.635,5.234q-4.3,6.2-8.612,12.4c-.074.107-.149.214-.225.32q-4.318,6.156-8.648,12.3-2.76,3.941-5.5,7.89c-1.276,1.84-3.369,6.291-6.275,4.431-3.886-2.488,4.641-11.571,6.268-13.819,2.558-3.528,5.231-6.988,7.718-10.569q3.121-4.5,6.243-8.993l4.577-6.595c1.467-2.114,4.341-4.95,4.415-7.539.064-2.221-2.431-3.874-3.6-5.562q-2.453-3.532-4.9-7.063c-1.3-1.874-2.4-3.766-3.544-5.709-1.2-2.03-3.152-3.585-4.407-5.628s-2.527-3.8-3.876-5.76q-5.1-7.416-10.167-14.865c-1.146-1.688-6.469-6.583-5.12-8.872A2.816,2.816,0,0,1,479.732,0c2.6,0,3.285,2.193,4.551,4.015q1.592,2.294,3.184,4.587l8.279,11.925L512.368,44.47q2.1,3.031,4.207,6.062,3.841-5.533,7.679-11.064l15.324-22.078q3.311-4.773,6.625-9.546,1.311-1.892,2.621-3.779c.909-1.311,2.362-3.259,4.053-3.474A2.041,2.041,0,0,1,554.9,2.165c.678,2.363-1.516,4.388-2.765,6.188l-4.263,6.14q-2.861,4.122-5.723,8.245c-4.13,5.951-8.416,11.685-12.56,17.623-1.676,2.4-3.078,5.11-4.815,7.411-1.183,1.7-4.621,5.071-4.706,7.294" transform="translate(-427.903 0)" fill="#f2f0e5"/>
      <path id="Path_38722" data-name="Path 38722" d="M50.171,80.26c-1.025,2.207-1.449,4.616-3.456,6.268a13.51,13.51,0,0,1-6.422,2.7,16.939,16.939,0,0,1-3.681-.135,3.977,3.977,0,0,1-.871-.133.972.972,0,0,1-.157-1.806,3.3,3.3,0,0,1,1.384-.4c3.278-.423,6.6-.8,8.787-3.59A8,8,0,0,0,47.5,78.12a6.244,6.244,0,0,0-.6-2.767,8.414,8.414,0,0,0-2.542-2.7c-.648-.445-2.655-.981-2.9-1.694-.269-.691.334-1.338.512-1.985a5.672,5.672,0,0,0,.2-2.121,5.389,5.389,0,0,0-1.852-3.612,2.2,2.2,0,0,0-2.765-.336,7,7,0,0,0-2.231,2.543,22.821,22.821,0,0,0-1.605,3.122c-1.807,4.105-2.185,9.189.379,13.071a2.3,2.3,0,0,0,1.561,1.181,1.61,1.61,0,0,0,1.116-.49,3.523,3.523,0,0,0,.669-1.026,8.614,8.614,0,0,0,.781-3.724,30.806,30.806,0,0,0-.446-4.951,32.765,32.765,0,0,1-.914-4.862,9.721,9.721,0,0,1,.335-1.762c.09-.424.2-.914.6-1.115a1.148,1.148,0,0,1,1.428.49,2.57,2.57,0,0,1,.156.913c.023.959.067,1.9.089,2.856l1.2,5.909a10.943,10.943,0,0,1,.067,4.5,9.544,9.544,0,0,1-1.405,4.237,7.159,7.159,0,0,1-1.115,1.048,4.483,4.483,0,0,1-3.033.558c-.224-.045-.691-.157-.891-.224a11.061,11.061,0,0,1-1.739-1.2,10.985,10.985,0,0,1-1.116-1.672,17.782,17.782,0,0,1-.848-2.386,19.7,19.7,0,0,1-.6-3.948,33.49,33.49,0,0,1,.313-3.969,18.825,18.825,0,0,1,.624-3.88c.848-2.811,2.833-6.691,5.732-7.739a7.045,7.045,0,0,1,2.7-.445,4.386,4.386,0,0,1,2.833,1.115,10.352,10.352,0,0,1,1.739,1.962c.29.469.446.958.69,1.427a12.043,12.043,0,0,1,.513,1.963A13.4,13.4,0,0,1,45,68.529a6.658,6.658,0,0,1-.713,1.806,11.993,11.993,0,0,1,4.906,3.858c1.159,1.672,1.9,4.149.981,6.067M43.749,44.8a69.826,69.826,0,0,0-6.758,10.214c-2.9,5.708-8.608,10.659-12.779,15.522-2.1,2.408-4.75,4.816-6.4,7.56-1.249,2.029-1.962,4.059-3.412,6.021-1.762,2.386-3.971,4.127-5.665,6.534-1.672,2.342-2.922,4.952-4.64,7.272-.713.959-2.877,5.129-4.1,5.487,4.663-1.338,9.323-2.633,13.961-4.037,2.1-.624,4.216-1.27,6.312-1.917a97.209,97.209,0,0,1,13-3.279c4.081-.669,7.249-2.72,11.085-3.745,4.416-1.183,9.1-1.294,13.537-2.476,1.226-.312,12.043-5.753,12.578-4.639Z" transform="translate(0.01 -40.184)" fill="#f2f0e5"/>
      <path id="Path_38723" data-name="Path 38723" d="M1166.156,314.4c.557.29.023,1.092-.224,1.405a10.736,10.736,0,0,1-2.432,2.677,9.479,9.479,0,0,1-3.322,1.383,4.762,4.762,0,0,1-2.565-.045,3.238,3.238,0,0,1-1.94-3.835c.669-2.208,3.1-2.433,5-1.962a18.23,18.23,0,0,0,2.452.334c.513.045,1.026.245,1.561.245a3.229,3.229,0,0,0,.669-.155,1.129,1.129,0,0,1,.8-.045" transform="translate(-1036.489 -281.485)" fill="#f2f0e5"/>
      <path id="Path_38724" data-name="Path 38724" d="M1080.178,79.065c-.536.268-1.159-.044-1.7-.335a24.047,24.047,0,0,0-3.858-1.717c-.691-.244-1.384-.446-2.074-.625-.624-.155-1.472-.646-2.074-.311a8.382,8.382,0,0,0-2.1,2.408,21.4,21.4,0,0,0-2.965,5.486,4.929,4.929,0,0,1-.691,1.472,1.576,1.576,0,0,1-1.406.67,1.519,1.519,0,0,1-1.093-1.652,4.292,4.292,0,0,1,.781-2.006q1.706-2.845,3.413-5.687c.4-.625,1.048-1.362.156-1.807-.959-.469-2.12-1.159-3.145-.536a4.389,4.389,0,0,0-1.093,1.139,13.563,13.563,0,0,1-1.472,2.029,15.375,15.375,0,0,1-1.784,1.4,11.7,11.7,0,0,1-4.194,1.628c-2.743.491-6.489.068-7.315-3.144a6.6,6.6,0,0,1,.714-4.484,4.216,4.216,0,0,1,1.584-1.828,4.994,4.994,0,0,1,2.207-.513,50.139,50.139,0,0,1,7.114.09c.848.067,1.963.358,2.743-.135a4.073,4.073,0,0,0,1.361-1.762l.135-.268c.512-1.048,1.025-2.1,1.538-3.122.2-.4.446-.713.669-1.092a5.475,5.475,0,0,1,.758-1.362,1.207,1.207,0,0,1,2.186.737,3.806,3.806,0,0,1-.178,1.115,21.52,21.52,0,0,1-1.294,3.524c-.267.58-.557,1.115-.87,1.672-.245.422-.714.892-.736,1.405a.444.444,0,0,0,.022.178c.157.335.625.378.937.446,1.138.245,2.164,1.47,3.078.111,1.093-1.651,2.141-3.3,3.211-4.952.378-.579.892-1.248,1.584-1.135a1.247,1.247,0,0,1,.893,1.426,4.21,4.21,0,0,1-.758,1.672,21.46,21.46,0,0,0-1.116,1.986,9.653,9.653,0,0,1-.468.958,6.34,6.34,0,0,0-.958,1.694,15.337,15.337,0,0,1,7.448,2.409A2.888,2.888,0,0,1,1080.6,77.5a1.213,1.213,0,0,1-.423,1.561m23.6,18.872c-1.717-2.319-2.965-4.929-4.617-7.272-1.694-2.408-3.925-4.148-5.687-6.534-1.427-1.962-2.164-3.991-3.39-6.021-1.672-2.743-4.327-5.153-6.423-7.56-4.171-4.862-9.858-9.815-12.757-15.522a69.91,69.91,0,0,0-6.779-10.214L1037.4,83.325c.558-1.115,11.376,4.327,12.6,4.639,4.439,1.182,9.122,1.294,13.537,2.476,3.836,1.025,7,3.078,11.062,3.745a96.4,96.4,0,0,1,13,3.279c2.118.646,4.215,1.294,6.333,1.919,4.639,1.4,9.3,2.7,13.938,4.036-1.226-.358-3.367-4.527-4.1-5.487" transform="translate(-930.505 -40.193)" fill="#f2f0e5"/>
    </g>
  </g>
</svg>
