<svg id="Group_1230" data-name="Group 1230" xmlns="http://www.w3.org/2000/svg" width="19.811" height="19.811" viewBox="0 0 19.811 19.811">
  <path id="Path_4" data-name="Path 4" d="M1111.535,507.945h-8.877a5.473,5.473,0,0,0-5.467,5.467v8.877a5.473,5.473,0,0,0,5.467,5.467h8.877a5.474,5.474,0,0,0,5.468-5.467v-8.877a5.473,5.473,0,0,0-5.468-5.467Zm3.71,14.344a3.714,3.714,0,0,1-3.71,3.71h-8.877a3.713,3.713,0,0,1-3.709-3.71v-8.877a3.713,3.713,0,0,1,3.709-3.709h8.877a3.714,3.714,0,0,1,3.71,3.709Zm0,0" transform="translate(-1097.191 -507.945)" fill="#4371e7"/>
  <path id="Path_5" data-name="Path 5" d="M1113.507,519.157a5.1,5.1,0,1,0,5.105,5.1,5.11,5.11,0,0,0-5.105-5.1Zm0,8.451a3.347,3.347,0,1,1,3.347-3.347,3.351,3.351,0,0,1-3.347,3.347Zm0,0" transform="translate(-1103.601 -514.356)" fill="#4371e7"/>
  <path id="Path_6" data-name="Path 6" d="M1131.023,515.676a1.289,1.289,0,1,0,.911.377,1.294,1.294,0,0,0-.911-.377Zm0,0" transform="translate(-1115.799 -512.365)" fill="#4371e7"/>
</svg>
