<svg xmlns="http://www.w3.org/2000/svg" width="465.645" height="725.969" viewBox="0 0 465.645 725.969">
  <g id="Layer_1" data-name="Layer 1" transform="translate(-0.022 -0.006)" opacity="0.5">
    <path id="Path_38694" data-name="Path 38694" d="M448.136,502.136l-.16.16c-3.855-5.59-8.109-11.027-12.436-16.53a10.667,10.667,0,0,1-1.024-1.575c-1.648-3.463-2.047-8.741,2.127-12.283l.24-.16c4.646,5.118,9.133,10.156,13.227,15.507a9.307,9.307,0,0,1,1.024,1.655l.392.791a11.2,11.2,0,0,1-3.39,12.443m-5.989,26.6-.16.08c-1.416-2.6-2.831-5.2-4.327-7.8l-6.3-9.844a12.708,12.708,0,0,1-.944-1.735l-.232-.711a10.046,10.046,0,0,1,3.782-11.18l.16-.08,5.278,7.006c2.207,3.3,4.407,6.693,6.222,9.6a14.736,14.736,0,0,1,.944,1.887l.232.7a10.253,10.253,0,0,1-4.646,12.044m-8.668,26h-.08c-2.679-6.142-5.43-12.443-8.661-18.577a9.972,9.972,0,0,1-.784-1.895c-1.416-4.487.472-8.973,4.878-11.412l.08-.08c3.463,5.75,6.534,11.579,9.677,17.714.319.711.552,1.416.791,2.127,1.416,4.566-1.183,9.844-5.909,12.124m-11.085,24.959h-.08c-1.967-6.142-4.174-12.6-6.773-19.521a8.932,8.932,0,0,1-.552-1.888,9.564,9.564,0,0,1,5.75-10.86l.232-.08c2.991,6.461,5.59,12.6,8.029,18.737a8.618,8.618,0,0,1,.472,1.895l.08.864a11.308,11.308,0,0,1-7.165,10.86M408.608,603.14l-.232.08a165.544,165.544,0,0,0-4.646-20.08,9.226,9.226,0,0,1-.319-1.967,8.711,8.711,0,0,1,1.735-6.062l.08-.16a9.318,9.318,0,0,1,5.118-4.015l.232-.073A159.341,159.341,0,0,1,416.4,590.3a6.746,6.746,0,0,1,.312,2.127c.08,4.486-2.679,9.764-8.109,10.7m-7.078,12.37c-.08,4.806-4.247,8.973-9.365,9.6H392a195.136,195.136,0,0,0-2.287-20.465,8.218,8.218,0,0,1-.16-1.967v-1.024c.472-4.094,3.623-7.318,8.109-8.261l.16-.08c1.416,5.75,2.28,11.419,3.223,17.4l.392,2.6a5.811,5.811,0,0,1,.08,2.047v.16ZM188.96,683.054C108.581,676.6,34.729,608.338,42.366,524.017c5.358-59.2,57.235-111.167,115.573-118.332-.472,1.183-.864,2.28-1.256,3.463-9.525,27.4-17.946,57.395-14.643,86.68,3.3,28.182,15.434,53.772,39.442,69.91,20.312,13.539,46.287,17.953,70.143,14.723,25.038-3.383,46.767-15.434,61.09-36.531,12.6-18.657,17.4-42.912,16.3-65.112-1.183-24.407-9.053-46.687-25.583-64.872-15.586-17.242-37.082-28.029-58.651-35.9a231.8,231.8,0,0,0-29.053-8.741c15.042-42.12,32.748-83.377,49.917-124.713,12.443-29.99,24.8-60.066,37.554-89.9a103.732,103.732,0,0,1,17,6.846,150.424,150.424,0,0,1,18.345,11.419,104.967,104.967,0,0,1,8.189,7.4c1.575,1.5,3.151,3.071,4.646,4.726.392.465,3.935,4.646,3.935,4.646a85.552,85.552,0,0,1,11.26,18.977c.08.16.16.232.24.392v.08a9.792,9.792,0,0,0,.472,1.5c.711,2.127,1.416,4.254,2.047,6.454a73.05,73.05,0,0,1,2.28,11.419,88.593,88.593,0,0,1-3.3,33.692,89.98,89.98,0,0,0-13.067-3.782c-27.006-5.822-57.235-1.416-78.1,17.946-21.888,20.24-26.534,57,.24,75.348,21.336,14.643,50,8.581,71.326-2.439a113.444,113.444,0,0,0,34.164-27.637c11.732,13.067,20.392,29.837,25.982,45.9,24.719,70.542,19.521,151.792-19.681,215.64-41.569,67.471-119.748,106.2-200.206,99.827m195-46.6a11.135,11.135,0,0,1-10.468,8.661h-.16q.348-10.269,0-20.545a18.9,18.9,0,0,1,.08-2.047,9.586,9.586,0,0,1,8.9-8.421h.312c.7,6.693,1.256,13.546,1.5,20.392a5.893,5.893,0,0,1-.16,1.967m-18.817.145a130.61,130.61,0,0,1-.864,16.617,8.891,8.891,0,0,1-.392,2.047c-1.5,4.334-5.9,8.428-11.26,7.477h-.24a205.455,205.455,0,0,0,2.367-20.472,7.021,7.021,0,0,1,.312-1.967l.232-.864a9.467,9.467,0,0,1,3.39-4.334l.16-.08a9,9,0,0,1,6.062-2.047h.232V636.6Zm-22.04,30.077-.632,3.151a8.827,8.827,0,0,1-.632,2.047l-.232.552a10.514,10.514,0,0,1-11.971,5.43l-.16-.073.16-.632a145.037,145.037,0,0,0,4.646-19.369,11.584,11.584,0,0,1,.552-1.967c1.575-4.174,5.83-6.614,10.708-5.989l.232.08c-.552,5.663-1.575,11.1-2.672,16.77m-24.167,17.242a8.809,8.809,0,0,1-.864,1.967l-.08.073a11.216,11.216,0,0,1-12.755,4.254h-.08q3.779-9.572,7.085-19.369a15.142,15.142,0,0,1,.791-1.808,9.165,9.165,0,0,1,11.18-4.806l.232.08c-1.575,6.534-3.463,13.147-5.51,19.608m-25.038,11.027a9.015,9.015,0,0,1-1.024,1.648c-3.151,3.935-8.973,5.358-13.147,3.31l-.232-.08c3.463-6.294,6.534-12.835,9.133-18.578a10.133,10.133,0,0,1,.951-1.655c2.28-2.911,6.773-5.663,11.811-3.623l.232.08c-2.367,6.294-4.726,12.835-7.717,18.9m-20.24-1.815c-1.967,3.39-3.935,6.773-5.829,10a9.548,9.548,0,0,1-1.263,1.655c-3.623,3.623-9.525,4.327-13.539,1.575l-.16-.16c4.094-5.59,7.869-11.419,11.26-17.162a7.649,7.649,0,0,1,1.183-1.575l.711-.784a10.087,10.087,0,0,1,11.419-1.575l.16.16c-1.336,2.759-2.679,5.358-3.935,7.87m-32.763,15.114a9.4,9.4,0,0,1-1.575,1.5,10.576,10.576,0,0,1-13.459,0l-.16-.16c4.174-4.407,8.349-9.525,13.227-15.826a11.254,11.254,0,0,1,1.256-1.416,9.757,9.757,0,0,1,12.363-.711l.16.08c-4.174,6.381-8.029,11.732-11.811,16.53m-28.973,3.238A10.825,10.825,0,0,1,198.4,709.9l-.08-.16c6.062-5.278,10.708-9.684,14.962-14.171a8.711,8.711,0,0,1,1.575-1.343,9.751,9.751,0,0,1,12.2.791l.16.16c-3.7,4.486-8.029,9.285-13.619,15.035a14.912,14.912,0,0,1-1.655,1.263m-27.565-1.5a10.686,10.686,0,0,1-13.227-3.31l-.08-.16a195.427,195.427,0,0,0,16.61-12.2,8.514,8.514,0,0,1,1.655-1.1,9.557,9.557,0,0,1,11.964,2.2l.24.16c-5.75,5.358-10.628,9.6-15.434,13.3a12.8,12.8,0,0,1-1.735,1.1m-27.231-4.951a10.914,10.914,0,0,1-12.675-4.878l-.08-.24a168.933,168.933,0,0,0,17.953-10,10.293,10.293,0,0,1,13.539,2.839l.08.16a177.747,177.747,0,0,1-16.85,11.26,9.6,9.6,0,0,1-1.967.871m-24.32-9.14a7.328,7.328,0,0,1-1.967.632,10.825,10.825,0,0,1-11.971-6.693v-.16a193.133,193.133,0,0,0,19.209-7.4,17.775,17.775,0,0,1,1.888-.632,9.485,9.485,0,0,1,10.94,5.118l.16.24a169.617,169.617,0,0,1-18.265,8.893m-26.846-11.5h-1.024a10.991,10.991,0,0,1-10-8.349v-.16a182.866,182.866,0,0,0,20.233-4.566,8.925,8.925,0,0,1,1.808-.392,9.644,9.644,0,0,1,10.156,6.773v.16a176.7,176.7,0,0,1-19.129,6.222,18.382,18.382,0,0,1-2.047.312M82.991,668.724l-.232-.073a11.656,11.656,0,0,1-6.381-3.151,11.5,11.5,0,0,1-2.991-6.693v-.16a171.531,171.531,0,0,0,20.545-1.5,8.812,8.812,0,0,1,2.047-.08,9.637,9.637,0,0,1,8.98,8.029l.08.312a194.148,194.148,0,0,1-20.08,3.3,8.1,8.1,0,0,1-1.967,0M62.519,649.754c-4.878-1.263-8.5-6.3-7.949-11.1v-.232A173.14,173.14,0,0,0,75.121,640a15.194,15.194,0,0,1,1.967.16,9.768,9.768,0,0,1,7.8,9.372v.24a161.983,161.983,0,0,1-20.233.312,11.32,11.32,0,0,1-2.127-.312M45.277,628.1l-1.183-.552A11,11,0,0,1,38.9,615.9l.08-.232a150.759,150.759,0,0,0,20.08,4.566c.711.16,1.416.312,1.967.472a9.6,9.6,0,0,1,6.222,10.389v.232a169.463,169.463,0,0,1-20.08-2.6,10.268,10.268,0,0,1-1.888-.624M31.186,604.011c-4.334-2.911-6.222-8.661-4.174-13.227l.08-.073a166.957,166.957,0,0,0,19.049,7.637c.632.24,1.263.552,1.895.864a9.5,9.5,0,0,1,4.566,11.1l-.08.24a155.8,155.8,0,0,1-19.289-5.67,18.131,18.131,0,0,1-2.047-.864M21.262,577.8a11,11,0,0,1-1.967-13.7l.08-.073a165.951,165.951,0,0,0,17.634,10.788,11.512,11.512,0,0,1,1.655,1.024,9.411,9.411,0,0,1,2.679,11.652l-.08.312a145.726,145.726,0,0,1-18.185-8.733,10.475,10.475,0,0,1-1.808-1.263m-5.2-27.405c-2.991-4.094-2.759-10.555.312-14.018l.232-.16A159.106,159.106,0,0,0,31.97,550c.552.472,1.024.951,1.5,1.416a9.68,9.68,0,0,1,.632,11.891l-.16.232a140.661,140.661,0,0,1-16.61-11.812,5.306,5.306,0,0,1-1.256-1.336m-1.183-35.507a11.731,11.731,0,0,1,4.167-6.294l.16-.073a100.805,100.805,0,0,0,12.516,16.45,10.775,10.775,0,0,1,1.183,1.655,8.476,8.476,0,0,1,1.183,5.822,10.589,10.589,0,0,1-2.831,5.9l-.16.16c-2.287-1.967-4.407-3.942-6.454-5.909-2.439-2.6-4.878-5.43-7.477-8.653A11.094,11.094,0,0,1,16,522.209a11.618,11.618,0,0,1-1.1-7.325m11.4-33.14.16-.08a175.743,175.743,0,0,0,9.372,18.425,10.4,10.4,0,0,1,.791,1.895,8.878,8.878,0,0,1-3.543,11.18l-.312.232a188.759,188.759,0,0,1-11.18-17,6.357,6.357,0,0,1-.711-1.815c-1.336-4.878,1.1-10.628,5.43-12.835m6.055-20.552a10.974,10.974,0,0,1,6.142-4.407l.08-.073a118.435,118.435,0,0,0,5.982,19.761,10.948,10.948,0,0,1,.552,1.967c.791,4.247-1.5,8.349-5.742,10.468l-.16.073c-1.416-2.672-2.672-5.271-3.855-7.79-1.416-3.463-2.751-7.085-4.015-10.788a9.825,9.825,0,0,1-.472-2.047l-.08-.711a10.917,10.917,0,0,1,1.575-6.454M54.25,434.034h.232a180.078,180.078,0,0,0,2.6,20.312v.16a7.855,7.855,0,0,1,.232,1.967A9.208,9.208,0,0,1,50,465.918L49.6,466c-1.808-6.381-3.383-13.067-4.646-19.681a8.948,8.948,0,0,1-.08-2.047c.472-5.118,4.726-9.684,9.372-10.236m8.741-11.34c.791-4.646,5.35-8.261,10.316-8.261h.784a147.826,147.826,0,0,0-1.024,15.586c0,1.655.08,3.39.16,5.118a8.564,8.564,0,0,1-.08,1.967c-.632,4.174-4.174,7.325-8.9,7.957l-.232.073c-.392-2.911-.791-5.822-1.024-8.661-.16-3.7-.232-7.637-.232-11.492a14.437,14.437,0,0,1,.232-2.279m20.472-16.066a17.461,17.461,0,0,1,.632-1.888c1.888-4.334,7.006-7.957,12.2-6.693l.16.073a145.976,145.976,0,0,0-3.782,18.185l-.392,2.047a8.079,8.079,0,0,1-.472,1.887c-1.735,4.566-5.43,7.093-10,6.534H81.5c.392-7.318,1.024-13.931,1.967-20.153m23.855-14.4a9.958,9.958,0,0,1,1.024-2.047c2.28-4.254,8.269-6.062,13.067-4.094l.16.08c-2.991,6.294-5.829,12.356-7.71,19.129a19.08,19.08,0,0,1-.791,1.895c-2.2,4.487-7.165,5.271-10.94,4.566l-.312-.08a129.031,129.031,0,0,1,5.51-19.449m25.735-10.076A8.734,8.734,0,0,1,134.4,380.5c3.383-3.39,9.525-5.118,13.859-1.967l.08.16c-4.334,5.59-7.957,12.124-11.027,17.554a9.4,9.4,0,0,1-1.1,1.5,9.95,9.95,0,0,1-2.367,2.047l-.16.08a9,9,0,0,1-2.759,1.336c-.16,0-.392.08-.552.08l-1.575.08v.08a3.8,3.8,0,0,1-.944-.08h-.16a1.9,1.9,0,0,1-.711-.16,1.484,1.484,0,0,1-.624-.08,3.759,3.759,0,0,1-.552-.24h-.08a3.663,3.663,0,0,1-1.024-.392l-.312-.16a162.649,162.649,0,0,1,8.661-18.185m27.565-5.038a10.651,10.651,0,0,1,1.648-1.575l.16-.16c3.223-2.526,7.717-2.287,11.1-.472a17.526,17.526,0,0,0-2.367,6.613,79.255,79.255,0,0,0-9.133,10c-.552.632-1.024,1.1-1.416,1.5l-.864.711c-3.463,2.6-7.949,1.575-11.02-.392l-.24-.16a128.715,128.715,0,0,1,12.124-16.058m16.378,10.388c.472-.392.864-.871,1.263-1.183l.152-.152a123.871,123.871,0,0,1,10.156-8.9c.232-.16.552-.392.791-.552l.312-.16a3.159,3.159,0,0,1,.552-.232,5.044,5.044,0,0,1,1.024-.319l.312-.08c4.486-1.343,9.764.16,11.971,3.463l.312.392c-3.151,1.967-6.614,4.327-10.468,7.245-1.5,1.1-2.991,2.359-4.486,3.463l-1.808,1.416a10.087,10.087,0,0,1-1.575,1.024l-.16.073a6.6,6.6,0,0,1-2.679.791l-.392.08a6.687,6.687,0,0,1-1.183.232h-.392a8.245,8.245,0,0,1-1.336.073l-.392-.073-.472-.16a4.927,4.927,0,0,0-1.024-.16,8.872,8.872,0,0,1-2.127-1.183,9.026,9.026,0,0,1-1.575-1.416l-.232-.232c.791-.711,1.5-1.5,2.279-2.287L177,387.485Zm17.561-37.242.16-.16,8.428,18.185a1.106,1.106,0,0,0,.16.472,21.767,21.767,0,0,0-8.428-1.735,20.075,20.075,0,0,0-3.775.312,3.343,3.343,0,0,1-.392-.791l-1.416-2.831c-.24-.632-.472-1.343-.711-1.975a10.474,10.474,0,0,1,5.982-11.492m9.517-24.944.232-.08,8.349,18.5a19.191,19.191,0,0,1,.632,1.888l.152.791a10.267,10.267,0,0,1-5.982,10.708l-.24.08-8.341-18.425a5.758,5.758,0,0,1-.632-1.735l-.16-.864a10.413,10.413,0,0,1,5.982-10.868m8.2,71.333c-.312.16-.552.312-.7.392l-1.263.472a10,10,0,0,1-8.421-.791l-2.439-2.047c-.232-.312-.472-.624-.711-.944l-.16-.24a16.233,16.233,0,0,1,1.343-1.024l.232-.16c5.118-3.543,10.708-6.926,15.586-9.844.472-.232,1.024-.552,1.648-.791l.24-.08a10.56,10.56,0,0,1,12.443,4.878l.08.152c-5.83,2.991-11.732,6.3-17.873,10m24.639,7.5a10.56,10.56,0,0,1-1.888.7,9.889,9.889,0,0,1-11.26-5.038l-.08-.16c5.9-3.39,11.811-6.461,18.106-9.292a8.374,8.374,0,0,1,1.967-.711,11.046,11.046,0,0,1,12.124,6.294l.08.232A163.345,163.345,0,0,0,236.9,404.1m43.391,6a101.377,101.377,0,0,0-20.312,4.327,11.335,11.335,0,0,1-1.888.392,9.31,9.31,0,0,1-10.076-6.294l-.16-.319a166.464,166.464,0,0,1,19.289-6.693,6.31,6.31,0,0,1,1.967-.232,11.127,11.127,0,0,1,11.18,8.581v.24Zm.544,127.305c.08-.624.16-1.256.24-1.808l.232-1.343c.944-3.151,3.383-5.038,7.557-5.663l.312-.08a54.108,54.108,0,0,1,1.735,13.779,51.386,51.386,0,0,1-.319,6.062,5.448,5.448,0,0,1-.472,1.967l-.632,1.5a12.573,12.573,0,0,1-10.86,6.374,8.559,8.559,0,0,1-2.127-.465h-.08a52.351,52.351,0,0,0,4.407-20.312M186.281,401.6c.392-.08.711-.24,1.1-.319a17.883,17.883,0,0,0,4.646-2.679,16.693,16.693,0,0,0,2.127,2.6,9.606,9.606,0,0,1-5.2,5.75l-.16.16-2.519-5.51ZM268.395,531.03c-25.743,18.185-69.046,8.893-80.858-21.808-8.349-21.648-3.463-45.663,2.6-67.159,3.231-11.34,7.085-22.432,11.027-33.54a215.713,215.713,0,0,1,40.465,13.067c15.194,6.846,28.973,15.666,36.69,27.87a51.048,51.048,0,0,1,7.949,21.176c0,.472.632,4.646.632,4.646.16,1.967.232,3.935.312,5.9a85.917,85.917,0,0,1-.7,15.586c-1.655,11.964-8.116,27.166-18.106,34.251M260.366,548.5a13.5,13.5,0,0,1,1.024-1.655l.319-.472c2.519-3.071,5.742-3.935,9.917-2.519l.392.16a51.638,51.638,0,0,1-2.359,8.029,77.88,77.88,0,0,1-5.038,10.468,7.234,7.234,0,0,1-1.256,1.575l-.624.632c-3.782,3.463-10.156,3.862-14.091.871A78.155,78.155,0,0,0,260.38,548.5m-23.95,3a11.368,11.368,0,0,1,1.5-1.263l.312-.24c3.543-2.2,7.4-1.967,10.868.951l.232.16a81.927,81.927,0,0,1-13.227,14.955,6.646,6.646,0,0,1-1.808,1.263,11.243,11.243,0,0,1-14.171-2.918l-.16-.16A77.742,77.742,0,0,0,236.431,551.5m-43.376,2.512a73.016,73.016,0,0,0,19.681-6.846,9.371,9.371,0,0,1,1.735-.7,8.571,8.571,0,0,1,10.316,3.775,1.791,1.791,0,0,0,.232.392,73.334,73.334,0,0,1-17.082,10.316,9.9,9.9,0,0,1-2.127.711c-5.278,1.024-11.419-2.6-12.755-7.565v-.08Zm-21.576-19.993.08-.16a56.36,56.36,0,0,0,20.784,1.655,6.852,6.852,0,0,1,1.808,0l1.416.08q4.966.828,6.614,6.846l.08.392a59.212,59.212,0,0,1-19.521,3.622,7.8,7.8,0,0,1-2.287-.16c-5.35-1.183-9.844-7.4-8.973-12.283m-11.572-26.607.08-.08a78.881,78.881,0,0,0,18.5,9.372,15.49,15.49,0,0,1,1.888.711c4.646,2.519,4.886,6.686,4.334,9.757l-.08.392a61.287,61.287,0,0,1-19.369-4.726,6.851,6.851,0,0,1-1.808-1.1l-.711-.472c-3.855-3.223-5.27-9.6-2.831-13.859m-2.991-28.175.16-.08a100.423,100.423,0,0,0,15.115,14.091,12.1,12.1,0,0,1,1.416,1.336,8.713,8.713,0,0,1,.944,11.187l-.16.312a86.122,86.122,0,0,1-16.69-11.027,9.532,9.532,0,0,1-1.5-1.575l-.392-.472c-2.831-4.174-2.359-10.389,1.1-13.779m15.507-10.781a6.846,6.846,0,0,1,1.1,1.655,9.178,9.178,0,0,1-1.975,11.492l-.232.24a103.183,103.183,0,0,1-13.387-15.042,6.283,6.283,0,0,1-1.1-1.887,10.674,10.674,0,0,1,3.543-13.227l.16-.08a182.949,182.949,0,0,0,11.884,16.85M174,401.206a13.808,13.808,0,0,0,3.3,1.1c2.831,6.222,5.278,11.34,7.557,15.826a10.73,10.73,0,0,1,.791,2.127,10.072,10.072,0,0,1-5.038,11.5l-.24.08c-2.991-5.358-5.982-11.18-9.285-18.106a8.116,8.116,0,0,1-.632-1.655l-.08-.312A10.546,10.546,0,0,1,174,401.213m3.31,42.033a12.194,12.194,0,0,1,.864,1.808,9.716,9.716,0,0,1-3.935,11.652l-.16.16c-3.463-4.878-7.006-10.4-10.86-17.089a8.1,8.1,0,0,1-.864-1.967,10.423,10.423,0,0,1,4.958-12.436l.16-.08c3.543,6.926,6.693,12.675,9.844,17.953m136.743,10.708a9.089,9.089,0,0,1-1.024,2.519v.08a70.311,70.311,0,0,0-18.817-8.98,8.869,8.869,0,0,1-1.735-.552,9.479,9.479,0,0,1-4.015-3.862,10.524,10.524,0,0,1-.711-5.9v-.392a66.864,66.864,0,0,1,19.521,4.174c.624.319,1.256.632,1.888,1.024l.791.552a10.847,10.847,0,0,1,3.935,6.221,10.281,10.281,0,0,1,.16,5.118m2.294,30.7-.08.08a118.176,118.176,0,0,0-15.194-14.011c-.632-.472-1.183-.944-1.575-1.263-2.991-3.383-3.39-7.158-1.024-11.18l.16-.232a51.337,51.337,0,0,1,7.4,4.015,96.828,96.828,0,0,1,9.365,6.773,10.012,10.012,0,0,1,1.575,1.648c3.223,4.094,2.911,10.628-.632,14.171m-8.036,42.2v.624c.08,4.886-3.623,10.628-8.973,11.419h-.08a62.3,62.3,0,0,0-4.726-20.24c-.232-.552-.392-1.183-.624-1.887-1.343-5.43,2.519-8.581,4.806-9.924l.312-.16a74.291,74.291,0,0,1,8.82,17.953,12.823,12.823,0,0,1,.472,2.207m-7.325-31.405c-.472-.552-.791-1.183-1.183-1.735-2.127-3.7-1.416-7.949,1.888-11.253l.232-.24A96.863,96.863,0,0,1,315.387,497.1a7.065,7.065,0,0,1,1.1,1.887l.319.711c1.648,4.719-.392,10.708-4.566,13.147l-.08.073a89.609,89.609,0,0,0-11.18-17.474M299.335,423.8l.16.232a10.179,10.179,0,0,1,1.183,6.142v.08a57.185,57.185,0,0,0-9.053-1.343,59.155,59.155,0,0,0-7.165-.392c-1.575,0-3.071.073-4.566.16a8.18,8.18,0,0,1-1.888,0c-4.334-.552-7.245-3.463-8.029-8.109v-.319a96.28,96.28,0,0,1,19.92-2.28,11.985,11.985,0,0,1,2.28.312,10.061,10.061,0,0,1,5.43,3.231l1.735,2.28ZM213.679,300.435l.16-.08,8.269,18.657a5.72,5.72,0,0,1,.624,1.967,10.042,10.042,0,0,1-5.742,11.419l-.24.08-8.349-18.5a13.87,13.87,0,0,1-.624-1.967,10.288,10.288,0,0,1,5.9-11.572m9.525-24.959h.16l8.261,18.817a19.293,19.293,0,0,1,.632,1.967l.16.711a10.209,10.209,0,0,1-5.982,10.788l-.16.073-8.269-18.817a9.158,9.158,0,0,1-.632-1.887,10.376,10.376,0,0,1,5.829-11.652m9.684-24.8.16-.08c2.679,6.534,5.358,12.915,8.029,19.057a8.083,8.083,0,0,1,.624,1.967,10.129,10.129,0,0,1-5.75,11.419l-.16.073-8.189-18.9a7.364,7.364,0,0,1-.624-2.047,10,10,0,0,1,5.9-11.492m10.163-24.487.16-.08,7.79,18.9a8.152,8.152,0,0,1,.632,1.975,10.23,10.23,0,0,1-6.142,11.332l-.16.08-7.869-18.9a17.983,17.983,0,0,1-.552-1.888l-.16-.791a10.331,10.331,0,0,1,6.3-10.628M253.2,201.624l.16-.073,7.8,18.9a7.449,7.449,0,0,1,.632,1.967,10.23,10.23,0,0,1-6.142,11.332l-.16.16-7.8-18.9a15.467,15.467,0,0,1-.632-2.047,10.243,10.243,0,0,1,6.142-11.34m10.316-24.559.16-.08,7.717,18.977a6.842,6.842,0,0,1,.552,1.967,10.217,10.217,0,0,1-6.062,11.332l-.232.08-7.8-18.977a14.435,14.435,0,0,1-.552-1.967,10.284,10.284,0,0,1,6.222-11.332m-6.461-40.153c-.319.392-.711.791-1.1,1.183l-.16.232h-.08l-.791.711c-2.2,1.655-5.9,3.223-10.468.232l-.319-.16c2.839-5.663,6.534-10.86,10.948-16.842a7.747,7.747,0,0,1,.791-.871l.944-.7.864-.552c4.015-2.207,9.684-2.439,13.147,1.256a109.786,109.786,0,0,0-13.779,15.514m-18.89-4.407c-1.888,3.855-3.383,7.4-4.726,10.708a10.078,10.078,0,0,1-.7,1.575,11.8,11.8,0,0,1-4.486,4.094,8.365,8.365,0,0,1-6.062.08c-.16-.08-.319-.08-.392-.16a94.656,94.656,0,0,1,5.9-19.049,7.02,7.02,0,0,1,1.024-1.808c3.071-3.855,9.445-6.142,14.091-3.151l.08.08c-1.575,2.439-3.223,4.966-4.726,7.637m-24.015,11.644a80.968,80.968,0,0,0-1.416,11.732,15.692,15.692,0,0,1-.392,2.047c-.552,3.071-5.829,7.637-10.628,6.926h-.232c.392-3.223.624-6.142.864-8.893.16-1.256.16-2.519.232-3.782a63.373,63.373,0,0,1,.711-7.557,11.083,11.083,0,0,1,.552-2.047,13.043,13.043,0,0,1,5.038-6.062,10.348,10.348,0,0,1,7.557-1.024h.16c-.864,2.831-1.735,5.75-2.439,8.661m-21.735,25.975L192.1,172.5a15.979,15.979,0,0,1-.392,1.967A10.061,10.061,0,0,1,181,181.391h-.232c.472-6.134,1.263-12.283,1.967-18.345l.232-1.888c.16-.791.319-1.5.472-2.047a9.9,9.9,0,0,1,10.548-6.846h.232c-.319,5.9-1.1,11.964-1.808,17.866m-20.538,18.9a12.424,12.424,0,0,1-.319,2.047,9.434,9.434,0,0,1-9.365,7.4H161.8a145.841,145.841,0,0,1,.24-20.153,8.662,8.662,0,0,1,.392-1.888l.552-1.655a10.577,10.577,0,0,1,10.468-6.142l.24.08c-.791,6.614-1.5,13.539-1.808,20.312m-16.937,20.385c.232,4.015-1.1,6.062-5.118,7.557-.232.08-.392.16-.632.24-3.223-3.935-5.59-10.4-6.454-18.026a4.4,4.4,0,0,1,0-2.047v-.232c.552-5.358,5.2-10,10.316-10.076h.16a89.492,89.492,0,0,0,1.5,20.632l.08.232a4.592,4.592,0,0,1,.16,1.575v.16Zm-15.514,18.657c-.472,2.359-3.543,10.236-5.35,7.637-.08,0-.08-.073-.16-.16a3.468,3.468,0,0,1-.232-2.359,12.755,12.755,0,0,1,.944-2.911c.472-1.1.944-2.127,1.343-3.151A11.959,11.959,0,0,0,137,223.9a9.389,9.389,0,0,0,.08-1.5c0-.319-.08-.552-.08-.791-.16-.319-.16-.711-.312-1.024-.08-.073-.08-.232-.16-.232a.984.984,0,0,0-.472-.08.575.575,0,0,0-.392.16,5.186,5.186,0,0,0-.864,1.416c-.319.7-.552,1.5-.791,2.2-.319.864-.552,1.735-.871,2.6-.312.791-.624,1.575-1.024,2.367a4.857,4.857,0,0,1-1.256,1.568,1.807,1.807,0,0,1-1.575.232c-4.094-2.359,2.439-2.6,3.623-15.586.392-4.407-1.183-7.957,1.967-11.572.319-.392.944-.864,1.416,0,3.855,8.261,5.118,15.347,3.151,24.407m-12.291-5.263c0,.152-.073.392-.073.624a9.662,9.662,0,0,1-1.024,2.991,1.75,1.75,0,0,1-1.967,1.024c-1.1-.472-.632-1.5-.552-2.28a21.075,21.075,0,0,1,1.728-4.878c1.1-2.359,2.047-4.726,3.071-7.165.232-.472.472-.944,1.024-1.024a.943.943,0,0,1,.864.944,2.193,2.193,0,0,1-.319,1.336c-.711,1.808-1.416,3.623-2.207,5.43a12.737,12.737,0,0,0-.552,2.991m-6.287-1.416c-1.416.632-2.991.16-2.6-1.5,2.439-4.726,5.989-3.151,2.6,1.5m161.549-47.079a10.4,10.4,0,0,1-6.294,10.468l-.24.08-7.717-18.977c-.16-.392-.232-.7-.392-1.1l-.16-.871a10.285,10.285,0,0,1,6.222-11.34l.16-.073,7.637,18.9a9.4,9.4,0,0,1,.552,2.047l.232.864Zm-1.808-27.87a13.909,13.909,0,0,0,1.967-.791,18.469,18.469,0,0,0,4.327-2.519,15.708,15.708,0,0,0,4.566,4.566c.392.319.711.552,1.024.784a.6.6,0,0,1,.08.312l.08.319a10.333,10.333,0,0,1-6.294,11.26h-.16l-5.59-13.939Zm-6.142-16.85c2.839-2.679,5.75-5.2,8.9-7.717a8.818,8.818,0,0,1,1.416-1.024l.632-.24c.552-.152,1.024-.312,1.655-.465,3.855-.871,9.053.073,11.572,4.094l.16.232a88.6,88.6,0,0,0-8.189,5.358c-.7.472-1.336.944-1.967,1.416l-.392.319c-2.127,1.575-4.174,3.151-6.294,4.878a11.687,11.687,0,0,1-1.735,1.183,9.057,9.057,0,0,1-4.334,1.416,10.861,10.861,0,0,1-2.28-.312l-.16-.08a9.9,9.9,0,0,1-4.646-2.751l-.24-.16a84.907,84.907,0,0,1,5.9-6.142m14.882-20.16a10.053,10.053,0,0,1,5.829-5.663l.16-.08,2.759,7.165,1.1,2.911a20.732,20.732,0,0,0-9.365-2.207h-1.1a11.418,11.418,0,0,1,.632-2.127m16.755-29.917.24-.073,7.085,19.049a19.941,19.941,0,0,1,.552,2.047,10.107,10.107,0,0,1-6.454,11.18l-.16.08-7.245-19.129a6.738,6.738,0,0,1-.552-1.967l-.08-.791a10.194,10.194,0,0,1,6.614-10.4m11.252-24.167.319-.08,6.766,19.289A10.717,10.717,0,0,1,325,76.605l.08.312a10.257,10.257,0,0,1-6.614,10.708h-.232l-7.006-19.209a4.734,4.734,0,0,1-.319-1.1l-.16-.871a10.247,10.247,0,0,1,6.614-11.1M329.18,31.334l.312-.073L335.946,50.7a11.519,11.519,0,0,1,.472,1.967,10.411,10.411,0,0,1-6.773,10.948l-.16.08-6.693-19.376a7.8,7.8,0,0,1-.472-1.967,10.325,10.325,0,0,1,6.853-11.02M337.913,8.27a.277.277,0,0,1,.08.152,3.442,3.442,0,0,1,.711,2.28,12.755,12.755,0,0,1-.392,3c-.24,1.1-.552,2.28-.791,3.383a12.006,12.006,0,0,0-.392,3.31,4.535,4.535,0,0,0,.16,1.5,4.157,4.157,0,0,0,.232.7,4.016,4.016,0,0,0,.472,1.024c.08.08.08.16.24.24a.842.842,0,0,0,.392-.08.415.415,0,0,0,.392-.232,4.429,4.429,0,0,0,.632-1.5c.152-.791.232-1.575.392-2.367.08-.864.24-1.808.392-2.672s.312-1.655.552-2.519a4.587,4.587,0,0,1,.944-1.735,1.8,1.8,0,0,1,1.5-.552c4.486,1.575-1.888,2.991-.791,15.978.392,4.486,2.6,7.637.08,11.811-.24.392-.791.951-1.343.232-5.358-7.477-7.8-14.251-7.4-23.536.08-2.367,1.655-10.7,3.935-8.421m8.2,12.516c.312-3.071.944-5.517,2.359-5.118,1.183.232.944,1.336.944,2.2.08,1.967-.552,4.094-.7,6.062-.24,2.367-.472,4.8-.711,7.165a2.822,2.822,0,0,1-.472,1.343c-.319.392-.951.552-1.263.16a1.142,1.142,0,0,1-.232-.864c.08-1.183-.319-6.693.08-10.94m6.142-.327c1.256-.864,2.831-.632,2.831,1.024-1.648,5.038-5.358,4.174-2.831-1.024M325.318,132.9l.08.24a147.777,147.777,0,0,0-18.657,8.189c-.7.319-1.967.944-2.359,1.1a8.554,8.554,0,0,1-6.222-.24,9.706,9.706,0,0,1-3.071-2.207,8.778,8.778,0,0,1-1.5-1.808l-.16-.16a8.191,8.191,0,0,1,1.343-1.024,107.135,107.135,0,0,1,12.755-7.637c.232-.16.552-.312.864-.552.472-.232.944-.472,1.416-.711a10.816,10.816,0,0,0,1.1-.552,12.377,12.377,0,0,1,1.808-.791c4.886-1.1,10.628,1.728,12.6,6.142m13.147,5.278H339.8c4.806.152,8.9,4.407,9.917,8.581v.073a139.374,139.374,0,0,0-20.233,4.494,10.668,10.668,0,0,1-1.967.472c-4.174.624-8.109-1.808-10-6.149l-.16-.312c2.6-1.1,5.358-2.359,8.029-3.383,3.463-1.183,7.085-2.28,11.02-3.39a12.855,12.855,0,0,1,2.047-.392m23.311,16.225c5.35.632,9.053,6.062,9.053,10.708v.16c-7.637-.472-13.939-.632-20.7.232a17.576,17.576,0,0,1-1.967.08,7.628,7.628,0,0,1-5.35-2.439l-.24-.16a9.319,9.319,0,0,1-2.991-5.43l-.08-.312a105.155,105.155,0,0,1,20-2.911,12.08,12.08,0,0,1,2.279.073M378.85,174.7a13.376,13.376,0,0,1,1.967.552c1.575.7,4.407,2.28,5.67,5.038a12.131,12.131,0,0,1,.944,7.717v.08c-7.085-2.287-13.307-4.015-20.153-4.566a12.878,12.878,0,0,1-2.127-.392,9.5,9.5,0,0,1-4.719-3.623,8.828,8.828,0,0,1-1.735-5.9v-.312A96.866,96.866,0,0,1,378.85,174.7M394.6,200.368a12.753,12.753,0,0,1,4.327,6.534,11.924,11.924,0,0,1-1.1,7.637h-.08a82.475,82.475,0,0,0-18.5-9.684c-.624-.319-1.183-.552-1.575-.791-2.28-1.575-5.742-5.118-3.935-10.781l.08-.4c2.6.632,5.35,1.416,8.261,2.287a56.4,56.4,0,0,1,10.708,4.015,15.54,15.54,0,0,1,1.808,1.183M401.37,228.4c3.071,4.327,2.6,10.94-1.024,14.323l-.08.08c-2.047-2.439-4.015-4.566-6.142-6.693-2.759-2.679-5.67-5.2-8.661-7.637a12.588,12.588,0,0,1-1.575-1.416,7.153,7.153,0,0,1-2.28-5.125l-.08-.232a8.711,8.711,0,0,1,1.575-5.829l.232-.319a87.373,87.373,0,0,1,16.538,11.34,13.241,13.241,0,0,1,1.5,1.5m-1.1,36.218v.08a9.936,9.936,0,0,1-4.566,5.9l-.16.073a109.518,109.518,0,0,0-10.94-17.714,12.213,12.213,0,0,1-.944-1.5l-.08-.08a9.039,9.039,0,0,1,2.359-11.332l.16-.16c2.047,1.975,3.935,4.015,5.909,6.222a67.788,67.788,0,0,1,7.006,9.053,7.052,7.052,0,0,1,1.024,1.808l.232.552v.08a9.79,9.79,0,0,1,0,7.006m-22.991,10.323-.08-.552a9.316,9.316,0,0,1-.08-2.918l.08-.232a5.977,5.977,0,0,1,.552-2.207,10.3,10.3,0,0,1,4.486-4.486l.24-.16a102.033,102.033,0,0,1,8.973,18.106c.08,0,.08.16.16.552l.472,2.6v.392l-.08.312a11.434,11.434,0,0,1-7.557,10.236h-.16a118.584,118.584,0,0,0-3.623-12.835c-.392-1.024-.711-1.888-1.1-2.911l-.392-.944a28.753,28.753,0,0,0-1.256-3.071,8.8,8.8,0,0,1-.632-1.895m-22.512,12.85a7.614,7.614,0,0,1-1.655.784c-4.094,1.5-7.8.24-10.468-3.383-.08-.16-.16-.24-.232-.392a74.222,74.222,0,0,1,16.617-11.02,7.83,7.83,0,0,1,2.127-.791l.472-.16a11.6,11.6,0,0,1,7.165,1.183c0,.232.08.465.08.7a21.613,21.613,0,0,0,1.256,4.886,16.516,16.516,0,0,0-7.557,4.247,65.83,65.83,0,0,0-7.8,3.935m-5.989,28.189a8.245,8.245,0,0,1,.312-2.047,8.134,8.134,0,0,1,3.223-4.806,8.373,8.373,0,0,1,5.75-1.808c.16,0,.319.08.472.08a85,85,0,0,1-.791,19.841v.08a14.2,14.2,0,0,1-.552,2.28c-.951,2.759-3.39,4.566-5.358,5.67a9.386,9.386,0,0,1-7.4.944h-.16a94.163,94.163,0,0,0,4.486-20.24m-30.135-29.91a62.79,62.79,0,0,1,11.811-16.058,9.107,9.107,0,0,1,1.808-1.416c4.407-2.831,11.34-1.728,14.49,2.367l.08.08a75.043,75.043,0,0,0-15.746,13.539,12.391,12.391,0,0,1-1.416,1.416q-4.846,4.018-10.628.24l-.392-.16ZM329.724,312c-6.062,3.39-22.991,11.187-28.182,3.623-11.884-17.4,22.911-18.185,34.091-17.793a63.622,63.622,0,0,1,11.027,1.416,75.3,75.3,0,0,1-16.93,12.748M327.6,327.985a11.222,11.222,0,0,1,.951-1.808,9.533,9.533,0,0,1,4.486-3.7c1.416-.632,3.543-.632,6.142,0l.232.08a68.725,68.725,0,0,1-2.127,8.189,80.481,80.481,0,0,1-4.247,10.7,13.164,13.164,0,0,1-1.263,1.887l-.624.791a11.574,11.574,0,0,1-6.454,3.3,10.265,10.265,0,0,1-7.8-1.575h-.08A55.821,55.821,0,0,0,327.6,327.978m-29.365-31.8a46.044,46.044,0,0,1,3.623-19.209,15.621,15.621,0,0,1,1.1-1.967c3.231-4.646,10.4-6.3,14.8-3.463h.08a61.013,61.013,0,0,0-9.6,18.5,8.416,8.416,0,0,1-.624,1.808,7.468,7.468,0,0,1-3.463,3.782c-1.336.711-2.991.864-5.43.552h-.472Zm7.245,35.347a10.2,10.2,0,0,1,1.416-1.183c1.888-1.336,5.038-2.759,9.844.791l.319.24A48.132,48.132,0,0,1,304.069,346.1a20.9,20.9,0,0,1-2.127,1.183,13.145,13.145,0,0,1-9.292-.392,12.5,12.5,0,0,1-6.613-6.693c7.085-.232,13.619-3.071,19.449-8.661m-15.441-8.2,1.887.312a8.183,8.183,0,0,1,2.047.552,27.4,27.4,0,0,1,1.183,4.327l.16.552v.152a20.772,20.772,0,0,1-18.657.312,8.29,8.29,0,0,1-2.207-1.5c-2.519-2.047-4.167-6.142-4.087-9.917.08-3.543,1.416-6.846,3.7-8.588,3.623,7.637,9.684,12.915,15.978,13.779m1.568-18.643a10.81,10.81,0,0,1,.472,1.808,10.042,10.042,0,0,1,.232,2.047c0,2.28-1.024,3.39-3.855,4.958a6.9,6.9,0,0,0-.791.472c-4.094-3.223-7.245-9.445-8.5-16.77a14.179,14.179,0,0,1-.16-2.519,12.24,12.24,0,0,1,4.334-8.109,10.79,10.79,0,0,1,7.006-2.911h.552a41.113,41.113,0,0,0,.711,21.017m75.428,5.285c-.232-3.862-.711-7.717-1.343-11.652v-.472a9.412,9.412,0,0,1-.08-1.416,8.31,8.31,0,0,1,.312-2.519l.08-.232a8.031,8.031,0,0,1,1.735-3.31,10.451,10.451,0,0,1,5.038-2.991l.312-.073a82.027,82.027,0,0,1,2.359,8.261c.392,1.648.791,3.463,1.1,5.43v.16c.16.791.232,1.416.312,2.127l.08.392c.232,1.183.392,2.287.552,3.39a8.949,8.949,0,0,1,.08,2.127,13.048,13.048,0,0,1-3.543,6.846,10.546,10.546,0,0,1-7.006,2.911c.073-3.39.073-6.3,0-8.973m38.9-4.813a6.822,6.822,0,0,1,2.047.392l.472.16a11.221,11.221,0,0,1,7.006,11.811v.16a110.238,110.238,0,0,0-20.472-2.918c-.7-.073-1.336-.16-1.888-.232a10.014,10.014,0,0,1-5.2-3.231,10.8,10.8,0,0,1-2.127-5.9v-.319a101.01,101.01,0,0,1,20.153.08m18.113,23.783.08.073c4.327,2.6,6.454,8.269,4.806,12.675l-.08.16a186.56,186.56,0,0,0-19.521-6.526,5.684,5.684,0,0,1-1.887-.711c-4.094-1.808-6.062-5.9-5.271-10.548l.08-.312,8.5,1.416c3.463.784,7.165,1.728,11.26,2.991a9.8,9.8,0,0,1,2.047.791m11.485,25.264a10.942,10.942,0,0,1,3.151,13.227l-.08.16c-6.374-3.543-12.6-6.534-18.577-9.133a16.507,16.507,0,0,1-1.655-.871,9.691,9.691,0,0,1-3.543-11.724l.08-.24a199.434,199.434,0,0,1,18.737,7.477c.624.319,1.256.711,1.888,1.1m8.109,26.215a10.7,10.7,0,0,1,1.735,13.387l-.08.16c-5.9-4.015-11.732-7.717-17.4-10.94a12.882,12.882,0,0,1-1.655-1.256,9.588,9.588,0,0,1-2.207-12.044l.16-.232c5.67,2.759,11.579,5.982,17.873,9.764a8.971,8.971,0,0,1,1.575,1.183m5.51,26.9a10.659,10.659,0,0,1,.552,13.3l-.16.16c-4.806-3.935-10.156-8.029-16.378-12.443a11.887,11.887,0,0,1-1.5-1.343,9.972,9.972,0,0,1-1.024-12.443l.16-.16c6.381,4.094,11.891,7.869,16.69,11.419a10.3,10.3,0,0,1,1.655,1.5m1.967,67.718-.16.08c-4.566-5.358-9.133-10.4-13.626-15.042a13.526,13.526,0,0,1-1.416-1.735,9.37,9.37,0,0,1,1.024-12.2l.232-.232q7.438,6.849,14.643,14.171a9.2,9.2,0,0,1,1.256,1.648c2.6,4.094,1.648,9.924-1.967,13.307m.407-27.311-.08.16a198.621,198.621,0,0,0-15.115-13.7c-.552-.552-1.024-1.024-1.416-1.5a9.849,9.849,0,0,1,0-12.516l.16-.16c4.958,3.7,10.156,7.949,15.826,12.828a7.144,7.144,0,0,1,1.416,1.575,10.37,10.37,0,0,1-.791,13.3m-.16-84.858c-9.133-28.741-24.327-57.707-46.607-78.179,14.33-36.923,11.891-79.834-11.02-113.054-18.033-26.294-44.24-45.119-73.852-55.2,2.287-5.2,4.566-10.389,6.933-15.586Q342.636,65.9,359.961,31.734C372.244,7.8,336.106-13.458,323.822,10.557c-16.378,32.117-31.492,64.872-45.9,97.86a130.663,130.663,0,0,0-54.643,9.053c-23.224,9.372-39.674,24.487-57.939,40.857-17.162,15.354-34.251,29.765-49.046,47.551-7.245,8.661-8.5,21.1,0,29.6,7.4,7.477,22.28,8.733,29.6,0,13.539-16.218,28.814-29.917,44.719-43.7,13.619-11.884,24.719-24.327,41.017-32.516a84.2,84.2,0,0,1,27.95-8.261c-3.855,9.212-7.8,18.5-11.652,27.79-21.256,51.013-43.064,101.875-62.985,153.447-4.094,10.548-8.109,21.1-12.044,31.725a160.269,160.269,0,0,0-66.368,12.987c-43.3,18.585-76.916,54.956-94.629,98.339-40.625,99.6,28.189,208.947,125.5,239.967,97.86,31.173,210.2-7.949,272.091-88.176,57.075-73.925,69.91-175.959,41.881-264.207" transform="translate(0 0)" fill="#80baff"/>
  </g>
</svg>
