<svg xmlns="http://www.w3.org/2000/svg" width="18.227" height="11.24" viewBox="0 0 18.227 11.24">
  <g id="Group_2851" data-name="Group 2851" transform="translate(0 0)">
    <path id="Path_38586" data-name="Path 38586" d="M451.272,138.247l-5.812,4.1,5.843,3.556V138.5a1.011,1.011,0,0,0-.03-.249Z" transform="translate(-433.076 -137.484)" fill="#e0ddda"/>
    <path id="Path_38587" data-name="Path 38587" d="M94.043,270.445a1.622,1.622,0,0,1-1.867,0l-1.8-1.266L84,273.063v1.094a1.013,1.013,0,0,0,1.013,1.013h16.2a1.013,1.013,0,0,0,1.013-1.013v-1.094l-6.384-3.885Z" transform="translate(-83.996 -263.93)" fill="#e0ddda"/>
    <path id="Path_38588" data-name="Path 38588" d="M84.031,138.25a1.014,1.014,0,0,0-.03.249v7.41l5.843-3.556Z" transform="translate(-84 -137.486)" fill="#e0ddda"/>
    <path id="Path_38589" data-name="Path 38589" d="M103.624,121.984l8.178-5.772a1,1,0,0,0-.66-.247H94.94a1,1,0,0,0-.66.247l8.178,5.772a1.01,1.01,0,0,0,1.166,0Z" transform="translate(-93.928 -115.965)" fill="#e0ddda"/>
  </g>
</svg>
