<svg id="Group_2852" data-name="Group 2852" xmlns="http://www.w3.org/2000/svg" width="16.408" height="23.462" viewBox="0 0 16.408 23.462">
  <g id="Group_157" data-name="Group 157">
    <path id="Path_73" data-name="Path 73" d="M10.2,59.46a8.21,8.21,0,0,0-8.2,8.2,7.535,7.535,0,0,0,.415,2.565C4.244,75.34,10.2,82.922,10.2,82.922s5.96-7.582,7.789-12.693a7.535,7.535,0,0,0,.415-2.565A8.186,8.186,0,0,0,10.2,59.46Zm0,4.149a4.069,4.069,0,0,1,4.074,4.074h0A4.069,4.069,0,0,1,10.2,71.757h0A4.069,4.069,0,0,1,6.13,67.683h0A4.081,4.081,0,0,1,10.2,63.609Z" transform="translate(-2 -59.46)" fill="#e0ddda"/>
  </g>
</svg>
