<svg id="Layer_1" data-name="Layer 1" xmlns="http://www.w3.org/2000/svg" width="458" height="164.289" viewBox="0 0 458 164.289">
  <g id="Group_2971" data-name="Group 2971" transform="translate(0)">
    <path id="Path_38695" data-name="Path 38695" d="M848.118,907.648a5.218,5.218,0,0,1-2.33-1.838,4.806,4.806,0,0,1-.818-2.781v-.555a.3.3,0,0,1,.3-.3h2.87a.289.289,0,0,1,.212.089.283.283,0,0,1,.089.212v.38a2.055,2.055,0,0,0,.93,1.7,4.134,4.134,0,0,0,2.519.693,2.972,2.972,0,0,0,1.988-.567,1.775,1.775,0,0,0,.657-1.4,1.415,1.415,0,0,0-.4-1.019,3.607,3.607,0,0,0-1.1-.731q-.693-.315-2.2-.869a21.208,21.208,0,0,1-2.857-1.185,5.721,5.721,0,0,1-1.963-1.649,4.148,4.148,0,0,1-.792-2.581A4.493,4.493,0,0,1,846,892.6a4.976,4.976,0,0,1,2.164-1.738,7.941,7.941,0,0,1,3.2-.6,8.169,8.169,0,0,1,3.412.68,5.564,5.564,0,0,1,2.341,1.9,4.874,4.874,0,0,1,.843,2.834v.376a.3.3,0,0,1-.3.3h-2.9a.3.3,0,0,1-.3-.3v-.2a2.293,2.293,0,0,0-.869-1.8,3.56,3.56,0,0,0-2.382-.744,3.007,3.007,0,0,0-1.85.506,1.64,1.64,0,0,0-.667,1.383,1.508,1.508,0,0,0,.391,1.058,3.44,3.44,0,0,0,1.158.766q.769.34,2.379.922a29.483,29.483,0,0,1,2.808,1.157,5.6,5.6,0,0,1,1.838,1.5,3.935,3.935,0,0,1,.82,2.581,4.513,4.513,0,0,1-1.738,3.739,7.406,7.406,0,0,1-4.709,1.372,9,9,0,0,1-3.524-.641" transform="translate(-706.151 -744)" fill="#f2f0e5"/>
    <path id="Path_38696" data-name="Path 38696" d="M964.773,891.589a.29.29,0,0,1,.214-.089h2.944a.291.291,0,0,1,.215.089.294.294,0,0,1,.087.212v17.022a.294.294,0,0,1-.087.212.284.284,0,0,1-.215.087h-2.944a.3.3,0,0,1-.3-.3v-6.951a.111.111,0,0,0-.126-.127H959a.111.111,0,0,0-.126.127v6.951a.289.289,0,0,1-.089.212.284.284,0,0,1-.215.087h-2.946a.282.282,0,0,1-.21-.087.277.277,0,0,1-.089-.212V891.8a.3.3,0,0,1,.3-.3h2.946a.3.3,0,0,1,.3.3v6.775a.111.111,0,0,0,.126.125h5.563a.111.111,0,0,0,.126-.125V891.8a.289.289,0,0,1,.089-.212" transform="translate(-798.371 -745.036)" fill="#f2f0e5"/>
    <path id="Path_38697" data-name="Path 38697" d="M1070.42,894.679v4.308a.112.112,0,0,0,.127.127h3.3a2.4,2.4,0,0,0,1.723-.631,2.141,2.141,0,0,0,.667-1.636,2.181,2.181,0,0,0-.667-1.648,2.379,2.379,0,0,0-1.723-.642h-3.3a.111.111,0,0,0-.127.125m5.765,14.224-3.148-6.974a.162.162,0,0,0-.153-.1h-2.339a.111.111,0,0,0-.126.127v6.874a.287.287,0,0,1-.089.212.282.282,0,0,1-.214.089h-2.946a.287.287,0,0,1-.212-.089.275.275,0,0,1-.089-.212v-17.02a.281.281,0,0,1,.089-.212.286.286,0,0,1,.212-.089h7.2a5.925,5.925,0,0,1,2.834.654,4.614,4.614,0,0,1,1.888,1.863,5.7,5.7,0,0,1,.667,2.795,4.988,4.988,0,0,1-.856,2.934,4.566,4.566,0,0,1-2.39,1.723.12.12,0,0,0-.077.176l3.425,7.125a.4.4,0,0,1,.049.153c0,.135-.094.2-.276.2h-3.1a.356.356,0,0,1-.353-.227" transform="translate(-891.595 -745.045)" fill="#f2f0e5"/>
    <path id="Path_38698" data-name="Path 38698" d="M1188.446,894.466a.284.284,0,0,1-.214.089h-8.257a.111.111,0,0,0-.125.127v3.9a.111.111,0,0,0,.125.126h5.413a.3.3,0,0,1,.3.3v2.441a.3.3,0,0,1-.3.3h-5.413a.111.111,0,0,0-.125.127v4.079a.11.11,0,0,0,.125.125h8.257a.3.3,0,0,1,.214.087.3.3,0,0,1,.089.215v2.443a.286.286,0,0,1-.089.212.278.278,0,0,1-.214.089H1176.6a.283.283,0,0,1-.212-.089.28.28,0,0,1-.087-.212v-17.02a.3.3,0,0,1,.3-.3h11.633a.3.3,0,0,1,.3.3v2.443a.284.284,0,0,1-.089.212" transform="translate(-983.047 -745.045)" fill="#f2f0e5"/>
    <path id="Path_38699" data-name="Path 38699" d="M1280.852,908.872l-4.456-17.045-.026-.1c0-.151.09-.227.276-.227h3.123a.319.319,0,0,1,.327.251L1282.488,902c.016.067.041.1.076.1s.059-.034.076-.1l2.317-10.22a.323.323,0,0,1,.327-.278h3.046a.335.335,0,0,1,.353.251L1291.2,902c.016.049.041.079.076.087s.059-.021.076-.087l2.317-10.22a.323.323,0,0,1,.327-.278h2.97c.235,0,.327.108.276.327l-4.129,17.045a.332.332,0,0,1-.353.251h-2.993a.318.318,0,0,1-.328-.251l-2.568-10.9c-.016-.067-.041-.1-.076-.1s-.059.036-.076.1l-2.392,10.874a.3.3,0,0,1-.327.276h-2.8a.33.33,0,0,1-.352-.251" transform="translate(-1066.677 -745.036)" fill="#f2f0e5"/>
    <path id="Path_38700" data-name="Path 38700" d="M1427.708,907.648a5.217,5.217,0,0,1-2.33-1.838,4.805,4.805,0,0,1-.818-2.781v-.555a.3.3,0,0,1,.3-.3h2.87a.289.289,0,0,1,.212.089.283.283,0,0,1,.089.212v.38a2.053,2.053,0,0,0,.932,1.7,4.126,4.126,0,0,0,2.517.693,2.972,2.972,0,0,0,1.988-.567,1.775,1.775,0,0,0,.657-1.4,1.414,1.414,0,0,0-.4-1.019,3.606,3.606,0,0,0-1.1-.731q-.693-.315-2.2-.869a21.21,21.21,0,0,1-2.857-1.185,5.72,5.72,0,0,1-1.963-1.649,4.148,4.148,0,0,1-.792-2.581,4.493,4.493,0,0,1,.78-2.642,4.976,4.976,0,0,1,2.164-1.738,7.941,7.941,0,0,1,3.2-.6,8.169,8.169,0,0,1,3.412.68,5.564,5.564,0,0,1,2.341,1.9,4.875,4.875,0,0,1,.843,2.834v.376a.3.3,0,0,1-.3.3h-2.9a.3.3,0,0,1-.3-.3v-.2a2.293,2.293,0,0,0-.869-1.8,3.56,3.56,0,0,0-2.382-.744,3.008,3.008,0,0,0-1.85.506,1.64,1.64,0,0,0-.667,1.383,1.508,1.508,0,0,0,.391,1.058,3.44,3.44,0,0,0,1.158.766q.769.34,2.379.922a29.488,29.488,0,0,1,2.808,1.157,5.6,5.6,0,0,1,1.838,1.5,3.935,3.935,0,0,1,.82,2.581,4.513,4.513,0,0,1-1.738,3.739,7.406,7.406,0,0,1-4.708,1.372,9,9,0,0,1-3.524-.641" transform="translate(-1190.521 -744)" fill="#f2f0e5"/>
    <path id="Path_38701" data-name="Path 38701" d="M1543.527,905.468a2.342,2.342,0,0,0,0-3.246,2.642,2.642,0,0,0-1.838-.591h-3.121a.111.111,0,0,0-.127.126v4.178a.111.111,0,0,0,.127.127h3.144a2.6,2.6,0,0,0,1.814-.591m-5.085-10.79v3.928a.111.111,0,0,0,.127.125h2.944a2.78,2.78,0,0,0,1.84-.552,1.883,1.883,0,0,0,.654-1.511,1.964,1.964,0,0,0-.654-1.548,2.723,2.723,0,0,0-1.84-.568h-2.944a.112.112,0,0,0-.127.127m6.9,5.415a4.26,4.26,0,0,1,2.39,4.1,4.322,4.322,0,0,1-1.661,3.69,7.093,7.093,0,0,1-4.357,1.245h-6.521a.29.29,0,0,1-.212-.089.283.283,0,0,1-.089-.212V891.809a.289.289,0,0,1,.089-.212.3.3,0,0,1,.212-.087h6.318q5.971,0,5.969,4.833a3.729,3.729,0,0,1-2.141,3.6c-.1.051-.1.1,0,.153" transform="translate(-1282.724 -745.045)" fill="#f2f0e5"/>
    <path id="Path_38702" data-name="Path 38702" d="M1647.588,908.578a5.548,5.548,0,0,1-2.292-2.128,6.073,6.073,0,0,1-.817-3.159V891.809a.3.3,0,0,1,.3-.3h2.946a.3.3,0,0,1,.3.3v11.507a2.974,2.974,0,1,0,5.944,0V891.809a.3.3,0,0,1,.3-.3h2.944a.3.3,0,0,1,.215.087.29.29,0,0,1,.089.212v11.482a6.032,6.032,0,0,1-.82,3.159,5.538,5.538,0,0,1-2.292,2.128,8.075,8.075,0,0,1-6.821,0" transform="translate(-1374.31 -745.045)" fill="#f2f0e5"/>
    <path id="Path_38703" data-name="Path 38703" d="M1760.51,894.679v4.308a.112.112,0,0,0,.127.127h3.3a2.4,2.4,0,0,0,1.723-.631,2.141,2.141,0,0,0,.667-1.636,2.181,2.181,0,0,0-.667-1.648,2.379,2.379,0,0,0-1.723-.642h-3.3a.111.111,0,0,0-.127.125m5.765,14.224-3.148-6.974a.162.162,0,0,0-.153-.1h-2.339a.111.111,0,0,0-.126.127v6.874a.286.286,0,0,1-.089.212.282.282,0,0,1-.214.089h-2.946a.287.287,0,0,1-.212-.089.275.275,0,0,1-.089-.212v-17.02a.281.281,0,0,1,.089-.212.286.286,0,0,1,.212-.089h7.2a5.925,5.925,0,0,1,2.834.654,4.613,4.613,0,0,1,1.888,1.863,5.7,5.7,0,0,1,.667,2.795,4.988,4.988,0,0,1-.856,2.934,4.566,4.566,0,0,1-2.39,1.723.12.12,0,0,0-.077.176l3.425,7.125a.4.4,0,0,1,.049.153c0,.135-.094.2-.276.2h-3.1a.356.356,0,0,1-.353-.227" transform="translate(-1468.311 -745.045)" fill="#f2f0e5"/>
    <path id="Path_38704" data-name="Path 38704" d="M1862.381,909a.284.284,0,0,1-.089-.214v-6.371a.337.337,0,0,0-.026-.151l-5.187-10.422a.426.426,0,0,1-.049-.153c0-.135.094-.2.276-.2h3.172a.356.356,0,0,1,.353.227l3.148,6.7c.049.1.1.1.15,0l3.148-6.7a.354.354,0,0,1,.353-.227h3.222a.281.281,0,0,1,.24.089.272.272,0,0,1-.013.265l-5.238,10.422a.361.361,0,0,0-.026.151v6.371a.3.3,0,0,1-.087.214.29.29,0,0,1-.215.087h-2.919a.288.288,0,0,1-.212-.087" transform="translate(-1551.94 -745.028)" fill="#f2f0e5"/>
    <path id="Path_38705" data-name="Path 38705" d="M1259.047.1a.289.289,0,0,1,.089.212V2.777a.3.3,0,0,1-.3.3h-4.506a.111.111,0,0,0-.127.127V17.331a.288.288,0,0,1-.087.21.279.279,0,0,1-.215.089h-2.944a.3.3,0,0,1-.3-.3V3.207a.11.11,0,0,0-.125-.127h-4.382a.292.292,0,0,1-.215-.089.3.3,0,0,1-.089-.214V.311a.3.3,0,0,1,.089-.212.292.292,0,0,1,.215-.089h12.69a.29.29,0,0,1,.214.089" transform="translate(-1041.162 -0.008)" fill="#f2f0e5"/>
    <path id="Path_38706" data-name="Path 38706" d="M1365.351.089a.29.29,0,0,1,.214-.089h2.944a.285.285,0,0,1,.214.089.289.289,0,0,1,.089.212V17.323a.283.283,0,0,1-.089.21.274.274,0,0,1-.214.089h-2.944a.3.3,0,0,1-.3-.3V10.372a.111.111,0,0,0-.126-.127h-5.563a.11.11,0,0,0-.125.127v6.951a.283.283,0,0,1-.089.21.279.279,0,0,1-.214.089H1356.2a.283.283,0,0,1-.212-.089.276.276,0,0,1-.087-.21V.3a.288.288,0,0,1,.087-.212A.289.289,0,0,1,1356.2,0h2.947a.291.291,0,0,1,.214.089.289.289,0,0,1,.089.212V7.078a.111.111,0,0,0,.125.125h5.563a.111.111,0,0,0,.126-.125V.3a.289.289,0,0,1,.089-.212" transform="translate(-1133.141 0)" fill="#f2f0e5"/>
    <path id="Path_38707" data-name="Path 38707" d="M1479.587,2.966a.285.285,0,0,1-.215.089h-8.255a.111.111,0,0,0-.125.125v3.9a.111.111,0,0,0,.125.127h5.413a.3.3,0,0,1,.3.3V9.953a.3.3,0,0,1-.3.3h-5.413a.11.11,0,0,0-.125.127v4.079a.11.11,0,0,0,.125.125h8.255a.3.3,0,0,1,.3.3v2.443a.284.284,0,0,1-.089.212.279.279,0,0,1-.215.089H1467.74a.283.283,0,0,1-.212-.089.278.278,0,0,1-.089-.212V.311a.29.29,0,0,1,.089-.212.289.289,0,0,1,.212-.089h11.632a.291.291,0,0,1,.215.089.289.289,0,0,1,.089.212V2.754a.284.284,0,0,1-.089.212" transform="translate(-1226.356 -0.008)" fill="#f2f0e5"/>
    <path id="Path_38708" data-name="Path 38708" d="M42.281,590a6.728,6.728,0,0,1-3.989,3.688l-6.332,2.568a.359.359,0,0,1-.529-.227l-5.257-12.966a.358.358,0,0,1,.227-.529l6.317-2.568a6.591,6.591,0,0,1,5.471-.062,7.8,7.8,0,0,1,3.762,4.4,7.514,7.514,0,0,1,.332,5.7M23.089,574.4a.351.351,0,0,1-.529-.227l-4.82-11.832a.375.375,0,0,1,.227-.529l5.727-2.326a7.076,7.076,0,0,1,5.456-.286,6.728,6.728,0,0,1,3.6,3.989,6.486,6.486,0,0,1,.136,5.29,7.076,7.076,0,0,1-4.065,3.6L23.089,574.4Zm30.027,6.922q-3.512-8.66-11.681-9.732c-.258-.061-.3-.227-.107-.483q4.443-5.668,1.421-13.132-2.97-7.3-8.87-9.082-5.892-1.767-13.963,1.51L4.428,556.692l-.256.105L0,558.489l4.761,2.374L24.33,609.008a.993.993,0,0,0,.529.544,1.087,1.087,0,0,0,.756,0l16.879-6.861q7.3-2.97,10.427-8.584c2.068-3.746,2.146-8.007.2-12.783" transform="translate(0 -458.199)" fill="#f2f0e5"/>
    <path id="Path_38709" data-name="Path 38709" d="M385.088,485.968a8.311,8.311,0,0,0,.327-6.151l-6.273-21.555a8.425,8.425,0,0,0-3.6-5.093,7.009,7.009,0,0,0-5.859-.626,6.907,6.907,0,0,0-4.529,3.647,8.413,8.413,0,0,0-.3,6.232l6.273,21.553a8.312,8.312,0,0,0,3.577,5.017,6.909,6.909,0,0,0,5.78.649,7.007,7.007,0,0,0,4.608-3.672M373.1,499.663a16.263,16.263,0,0,1-8.16-4.316,19.222,19.222,0,0,1-4.968-8.635l-6.046-20.774a19.068,19.068,0,0,1-.417-9.874,16.28,16.28,0,0,1,4.571-8.024,20.686,20.686,0,0,1,8.852-4.947,20.928,20.928,0,0,1,10.165-.586,16.211,16.211,0,0,1,8.2,4.306,19.1,19.1,0,0,1,4.945,8.556l6.047,20.774a19.26,19.26,0,0,1,.439,9.953,16.211,16.211,0,0,1-4.608,8.034,20.927,20.927,0,0,1-8.891,4.96,20.675,20.675,0,0,1-10.125.573" transform="translate(-295.046 -369.492)" fill="#f2f0e5"/>
    <path id="Path_38710" data-name="Path 38710" d="M720.28,403.883a.5.5,0,0,1-.3.181l-10.533,2.07a.593.593,0,0,1-.348-.061c-.12-.061-.166-.168-.151-.348l.831-24.193c0-.227.061-.348.166-.363s.21.076.3.273l10.033,22.077a.275.275,0,0,1,0,.363M739.5,417.814l-.151-.3-24.934-51.229a1.077,1.077,0,0,0-1.285-.573l-11.41,2.236-.166.03-5.364.953,4.2,3.264-3.582,53.645c-.03.725.3,1.028,1,.89l9.655-1.888a1.015,1.015,0,0,0,.877-1.012l.319-8.175a.359.359,0,0,1,.332-.393l14.931-2.931a.391.391,0,0,1,.452.241l3.371,7.465a1.092,1.092,0,0,0,1.268.59l9.747-1.919c.59-.107.83-.409.739-.892" transform="translate(-581.814 -305.6)" fill="#f2f0e5"/>
    <path id="Path_38711" data-name="Path 38711" d="M981.145,315.745a.947.947,0,0,1,.36.657l.867,7.922a.977.977,0,0,1-.864,1.079l-12.287,1.342a.361.361,0,0,0-.36.45l4.966,45.355a.97.97,0,0,1-.864,1.076l-9.456,1.037a.974.974,0,0,1-1.078-.864l-4.968-45.355a.36.36,0,0,0-.448-.36l-11.883,1.3a.97.97,0,0,1-1.076-.864l-.867-7.925a.973.973,0,0,1,.864-1.074l36.378-3.986a.933.933,0,0,1,.716.209" transform="translate(-788.225 -263.691)" fill="#f2f0e5"/>
    <path id="Path_38712" data-name="Path 38712" d="M1616.341,367.512a8.309,8.309,0,0,0,2.622-5.573l2.316-22.33a8.424,8.424,0,0,0-1.414-6.075,7,7,0,0,0-5.19-2.788,6.906,6.906,0,0,0-5.571,1.671,8.436,8.436,0,0,0-2.63,5.655l-2.317,22.33a8.3,8.3,0,0,0,1.423,5.993,6.91,6.91,0,0,0,5.108,2.78,7,7,0,0,0,5.652-1.664m-16.26,8.168a16.28,16.28,0,0,1-5.931-7.074,19.226,19.226,0,0,1-1.347-9.87l2.233-21.52a19.091,19.091,0,0,1,3.338-9.3,16.255,16.255,0,0,1,7.257-5.706,20.674,20.674,0,0,1,10.064-1.245,20.929,20.929,0,0,1,9.636,3.289,16.229,16.229,0,0,1,5.97,7.081,19.092,19.092,0,0,1,1.355,9.792l-2.234,21.52a19.232,19.232,0,0,1-3.345,9.384,16.2,16.2,0,0,1-7.3,5.7,20.928,20.928,0,0,1-10.105,1.24,20.66,20.66,0,0,1-9.594-3.284" transform="translate(-1331.013 -268.113)" fill="#f2f0e5"/>
    <path id="Path_38713" data-name="Path 38713" d="M2206.284,497.207a15.3,15.3,0,0,1-4.692-7.235,15.122,15.122,0,0,1,.135-8.651l.6-2.029a.972.972,0,0,1,1.211-.66l8.972,2.647a.969.969,0,0,1,.661,1.211l-.437,1.482a6.147,6.147,0,0,0,.682,5.162,8.165,8.165,0,0,0,4.919,3.445,6.654,6.654,0,0,0,5.1-.192,5.555,5.555,0,0,0,2.773-3.506,5.046,5.046,0,0,0-.107-3.381,11.252,11.252,0,0,0-2.134-3.258q-1.5-1.671-4.748-4.751a69.1,69.1,0,0,1-6.356-6.624,19.477,19.477,0,0,1-3.529-6.721,14.323,14.323,0,0,1,.171-8.346,15.1,15.1,0,0,1,4.482-7.286,14.583,14.583,0,0,1,7.587-3.442,23.522,23.522,0,0,1,18.131,5.517,15.482,15.482,0,0,1,4.5,16.38l-.46,1.559a.971.971,0,0,1-1.213.66l-8.972-2.647a.972.972,0,0,1-.661-1.211l.416-1.406a6.492,6.492,0,0,0-.57-5.257,7.657,7.657,0,0,0-4.753-3.437,6.6,6.6,0,0,0-4.833.145,5.352,5.352,0,0,0-2.785,3.547,5.482,5.482,0,0,0,.015,3.4,10.131,10.131,0,0,0,2.139,3.388q1.592,1.784,5,4.909l1.362,1.419a74.758,74.758,0,0,1,5.785,6.412,16.564,16.564,0,0,1,2.882,5.895,13.319,13.319,0,0,1-.286,7.3q-2.095,7.1-8.122,9.857t-13.988.411a22.828,22.828,0,0,1-8.877-4.7" transform="translate(-1839.42 -371.769)" fill="#f2f0e5"/>
    <path id="Path_38714" data-name="Path 38714" d="M2518.534,529.613l-2.96,7.314a.971.971,0,0,1-.514.529.931.931,0,0,1-.756,0l-20.2-8.175a.354.354,0,0,0-.527.227l-4.761,11.757a.351.351,0,0,0,.227.529l12.588,5.108a.92.92,0,0,1,.529.514.946.946,0,0,1,0,.756l-2.96,7.314a.931.931,0,0,1-.514.529.945.945,0,0,1-.756,0l-12.588-5.091a.359.359,0,0,0-.529.227l-4.91,12.136a.354.354,0,0,0,.227.527l20.2,8.19a.935.935,0,0,1,.529.514.946.946,0,0,1,0,.756l-2.948,7.314a.992.992,0,0,1-.529.529.944.944,0,0,1-.756,0l-30.3-12.269a.953.953,0,0,1-.544-.514.932.932,0,0,1,0-.756l19.508-48.16-1.768-5.047,4.171,1.707.242.09,30.057,12.18a.909.909,0,0,1,.544.514.944.944,0,0,1,0,.756" transform="translate(-2060.615 -429.865)" fill="#f2f0e5"/>
    <path id="Path_38715" data-name="Path 38715" d="M1300.644,363.617a.879.879,0,0,1-.287.68.89.89,0,0,1-.68.3l-9.519.061a.93.93,0,0,1-.695-.288.877.877,0,0,1-.287-.68l-.151-22.289a.361.361,0,0,0-.409-.407l-13.012.09a.361.361,0,0,0-.407.409l.151,22.287a.979.979,0,0,1-.968.982l-9.519.061a.976.976,0,0,1-.982-.968l-.348-51.966-3.489-3.976,4.442-.03,9.519-.061a.979.979,0,0,1,.982.968l.136,21.957c.015.271.136.409.409.409l13.026-.09a.345.345,0,0,0,.393-.409l-.136-21.957a.954.954,0,0,1,.968-.982l9.521-.061a.987.987,0,0,1,.695.271,1,1,0,0,1,.286.7Z" transform="translate(-1053.03 -257.115)" fill="#f2f0e5"/>
    <path id="Path_38716" data-name="Path 38716" d="M1949.281,359.037l-7.587,37.717a18.975,18.975,0,0,1-4.142,8.84,16.2,16.2,0,0,1-7.677,4.971,22.06,22.06,0,0,1-19.13-3.854,16.092,16.092,0,0,1-5.168-7.556,19.143,19.143,0,0,1-.409-9.746l6.982-34.742-2.645-4.608,4.4.876,9.338,1.875a.965.965,0,0,1,.619.407.907.907,0,0,1,.136.741l-7.692,38.278a7.951,7.951,0,0,0,.8,5.877,7.449,7.449,0,0,0,10.215,2.055,7.938,7.938,0,0,0,3.021-5.108l7.692-38.278a.917.917,0,0,1,.424-.619.944.944,0,0,1,.726-.153l9.338,1.875a.991.991,0,0,1,.619.424.954.954,0,0,1,.136.725" transform="translate(-1591.806 -292.549)" fill="#f2f0e5"/>
  </g>
</svg>
